<mxfile host="app.diagrams.net" modified="2021-12-15T04:16:10.997Z" agent="5.0 (Windows NT 10.0; Win64; x64) AppleWebKit/537.36 (KHTML, like Gecko) Chrome/93.0.4577.82 Safari/537.36" etag="8FRmUCyPHebKIP7FCHrd" version="15.9.6" type="github">
  <diagram id="-pNLefhiNSFeHPePN7iX" name="Current">
    <mxGraphModel dx="1336" dy="734" grid="1" gridSize="5" guides="1" tooltips="1" connect="1" arrows="1" fold="1" page="1" pageScale="1" pageWidth="1150" pageHeight="770" math="0" shadow="0">
      <root>
        <mxCell id="SS1UO9asb9NOfLbzNGHr-0" />
        <object label="" id="SS1UO9asb9NOfLbzNGHr-1">
          <mxCell parent="SS1UO9asb9NOfLbzNGHr-0" />
        </object>
        <mxCell id="ujxpVkBqCpxsbF_aywxT-58" value="" style="swimlane;shadow=0;strokeColor=#4277BB;fontColor=#4277BB;align=right;startSize=0;collapsible=0;strokeWidth=3;fillColor=#ECBF1B;fontSize=14;horizontal=1;" vertex="1" parent="SS1UO9asb9NOfLbzNGHr-1">
          <mxGeometry x="6" y="172" width="1139" height="594" as="geometry" />
        </mxCell>
        <mxCell id="ujxpVkBqCpxsbF_aywxT-202" value="" style="rounded=0;whiteSpace=wrap;html=1;labelBackgroundColor=#FFFFFF;strokeWidth=2;fillColor=none;fontSize=14;fontColor=#4277BB;strokeColor=#4277bb;dashed=1;" vertex="1" parent="ujxpVkBqCpxsbF_aywxT-58">
          <mxGeometry x="174" y="70" width="941" height="503.75" as="geometry" />
        </mxCell>
        <mxCell id="ujxpVkBqCpxsbF_aywxT-150" value="" style="rounded=0;whiteSpace=wrap;html=1;labelBackgroundColor=#FFFFFF;strokeWidth=2;fillColor=none;fontSize=14;fontColor=#4277BB;strokeColor=#4277bb;" vertex="1" parent="ujxpVkBqCpxsbF_aywxT-58">
          <mxGeometry x="912" y="366" width="132.75" height="175" as="geometry" />
        </mxCell>
        <mxCell id="ujxpVkBqCpxsbF_aywxT-146" value="" style="rounded=0;whiteSpace=wrap;html=1;labelBackgroundColor=#FFFFFF;strokeWidth=2;fillColor=none;fontSize=14;fontColor=#4277BB;strokeColor=#4277bb;" vertex="1" parent="ujxpVkBqCpxsbF_aywxT-58">
          <mxGeometry x="671" y="160.5" width="290.74" height="175" as="geometry" />
        </mxCell>
        <mxCell id="ujxpVkBqCpxsbF_aywxT-64" value="&lt;font style=&quot;font-size: 14px&quot;&gt;GeoView&lt;/font&gt;" style="aspect=fixed;perimeter=ellipsePerimeter;html=1;align=center;shadow=0;dashed=0;image;image=img/lib/ibm/applications/visualization.svg;labelBackgroundColor=#ffffff;strokeColor=#666666;strokeWidth=2;fillColor=#C2952D;gradientColor=none;fontSize=12;fontColor=#4277BB;verticalAlign=top;horizontal=1;" vertex="1" parent="ujxpVkBqCpxsbF_aywxT-58">
          <mxGeometry x="336" y="318.54" width="60" height="60" as="geometry" />
        </mxCell>
        <mxCell id="ujxpVkBqCpxsbF_aywxT-72" value="&lt;span style=&quot;font-size: 14px&quot;&gt;CloudWatch&lt;/span&gt;" style="aspect=fixed;perimeter=ellipsePerimeter;html=1;align=center;shadow=0;dashed=0;image;image=img/lib/ibm/data/enterprise_data.svg;labelBackgroundColor=#ffffff;strokeColor=#666666;strokeWidth=2;fillColor=#C2952D;gradientColor=none;fontSize=12;fontColor=#4277BB;" vertex="1" parent="ujxpVkBqCpxsbF_aywxT-58">
          <mxGeometry x="288" y="471" width="58" height="58" as="geometry" />
        </mxCell>
        <mxCell id="ujxpVkBqCpxsbF_aywxT-74" value="&lt;font style=&quot;font-size: 14px&quot;&gt;DynamoDB&lt;/font&gt;" style="aspect=fixed;perimeter=ellipsePerimeter;html=1;align=center;shadow=0;dashed=0;image;image=img/lib/ibm/data/device_registry.svg;labelBackgroundColor=#ffffff;strokeColor=#666666;strokeWidth=2;fillColor=#C2952D;gradientColor=none;fontSize=12;fontColor=#4277BB;" vertex="1" parent="ujxpVkBqCpxsbF_aywxT-58">
          <mxGeometry x="898" y="262.02" width="43" height="43" as="geometry" />
        </mxCell>
        <mxCell id="ujxpVkBqCpxsbF_aywxT-76" value="&lt;div&gt;&lt;span style=&quot;font-size: 14px&quot;&gt;IAM&lt;/span&gt;&lt;/div&gt;" style="aspect=fixed;perimeter=ellipsePerimeter;html=1;align=center;shadow=0;dashed=0;image;image=img/lib/ibm/data/device_identity_service.svg;labelBackgroundColor=#ffffff;strokeColor=#666666;strokeWidth=2;fillColor=#C2952D;gradientColor=none;fontSize=12;fontColor=#4277BB;" vertex="1" parent="ujxpVkBqCpxsbF_aywxT-58">
          <mxGeometry x="360" y="473" width="56" height="56" as="geometry" />
        </mxCell>
        <mxCell id="ujxpVkBqCpxsbF_aywxT-77" value="&lt;div&gt;&lt;span&gt;&lt;font&gt;&lt;font style=&quot;font-size: 14px&quot;&gt;CloudFormation&lt;/font&gt;&lt;/font&gt;&lt;/span&gt;&lt;/div&gt;" style="verticalLabelPosition=bottom;html=1;verticalAlign=top;align=center;strokeColor=none;shape=mxgraph.azure.github_code;pointerEvents=1;labelBackgroundColor=#FFFFFF;fillColor=#335D80;fontColor=#4277BB;spacing=2;spacingBottom=5;spacingTop=-3;" vertex="1" parent="ujxpVkBqCpxsbF_aywxT-58">
          <mxGeometry x="447" y="473.5" width="56.43" height="58" as="geometry" />
        </mxCell>
        <mxCell id="ujxpVkBqCpxsbF_aywxT-85" value="&lt;font style=&quot;font-size: 14px&quot;&gt;pygeoapi&lt;br&gt;&lt;br&gt;&lt;/font&gt;" style="aspect=fixed;perimeter=ellipsePerimeter;html=1;align=center;shadow=0;dashed=0;fontColor=#4277BB;labelBackgroundColor=#ffffff;fontSize=12;spacingTop=0;image;image=img/lib/ibm/applications/index.svg;fillColor=#ECBF1B;" vertex="1" parent="ujxpVkBqCpxsbF_aywxT-58">
          <mxGeometry x="941" y="410" width="68" height="68" as="geometry" />
        </mxCell>
        <mxCell id="ujxpVkBqCpxsbF_aywxT-97" value="&lt;font style=&quot;font-size: 14px&quot; color=&quot;#4277BB&quot;&gt;WordPress&lt;/font&gt;" style="dashed=0;outlineConnect=0;html=1;align=center;labelPosition=center;verticalLabelPosition=bottom;verticalAlign=bottom;shape=mxgraph.weblogos.wordpress;strokeColor=none;fillColor=#ecbf1b;spacingTop=-6;spacingBottom=34;" vertex="1" parent="ujxpVkBqCpxsbF_aywxT-58">
          <mxGeometry x="336" y="203.5" width="59.76" height="58" as="geometry" />
        </mxCell>
        <mxCell id="ujxpVkBqCpxsbF_aywxT-192" style="edgeStyle=elbowEdgeStyle;rounded=0;orthogonalLoop=1;jettySize=auto;html=1;exitX=1;exitY=0.5;exitDx=0;exitDy=0;exitPerimeter=0;entryX=0;entryY=0.5;entryDx=0;entryDy=0;fontSize=14;fontColor=#4277BB;startArrow=block;endArrow=classic;endFill=1;" edge="1" parent="ujxpVkBqCpxsbF_aywxT-58" source="ujxpVkBqCpxsbF_aywxT-120" target="ujxpVkBqCpxsbF_aywxT-164">
          <mxGeometry relative="1" as="geometry" />
        </mxCell>
        <mxCell id="ujxpVkBqCpxsbF_aywxT-120" value="CloudFront" style="sketch=0;points=[[0,0,0],[0.25,0,0],[0.5,0,0],[0.75,0,0],[1,0,0],[0,1,0],[0.25,1,0],[0.5,1,0],[0.75,1,0],[1,1,0],[0,0.25,0],[0,0.5,0],[0,0.75,0],[1,0.25,0],[1,0.5,0],[1,0.75,0]];outlineConnect=0;fontColor=#4277BB;gradientColor=#00B09E;gradientDirection=north;fillColor=#00B09E;strokeColor=#ffffff;dashed=0;verticalLabelPosition=bottom;verticalAlign=top;align=center;html=1;fontSize=14;fontStyle=0;aspect=fixed;shape=mxgraph.aws4.resourceIcon;resIcon=mxgraph.aws4.cloudfront;" vertex="1" parent="ujxpVkBqCpxsbF_aywxT-58">
          <mxGeometry x="52" y="266.01" width="52" height="52" as="geometry" />
        </mxCell>
        <mxCell id="ujxpVkBqCpxsbF_aywxT-188" style="edgeStyle=orthogonalEdgeStyle;rounded=0;orthogonalLoop=1;jettySize=auto;html=1;exitX=0.5;exitY=1;exitDx=0;exitDy=0;exitPerimeter=0;fontSize=14;fontColor=#4277BB;startArrow=block;" edge="1" parent="ujxpVkBqCpxsbF_aywxT-58" source="ujxpVkBqCpxsbF_aywxT-121" target="ujxpVkBqCpxsbF_aywxT-120">
          <mxGeometry relative="1" as="geometry" />
        </mxCell>
        <mxCell id="ujxpVkBqCpxsbF_aywxT-121" value="Route 53" style="sketch=0;points=[[0,0,0],[0.25,0,0],[0.5,0,0],[0.75,0,0],[1,0,0],[0,1,0],[0.25,1,0],[0.5,1,0],[0.75,1,0],[1,1,0],[0,0.25,0],[0,0.5,0],[0,0.75,0],[1,0.25,0],[1,0.5,0],[1,0.75,0]];outlineConnect=0;fontColor=#4277BB;gradientColor=#00B09E;gradientDirection=north;fillColor=#00B09E;strokeColor=#ffffff;dashed=0;verticalLabelPosition=bottom;verticalAlign=top;align=center;html=1;fontSize=14;fontStyle=0;aspect=fixed;shape=mxgraph.aws4.resourceIcon;resIcon=mxgraph.aws4.route_53;" vertex="1" parent="ujxpVkBqCpxsbF_aywxT-58">
          <mxGeometry x="51" y="147.75" width="54" height="54" as="geometry" />
        </mxCell>
        <mxCell id="ujxpVkBqCpxsbF_aywxT-187" style="edgeStyle=orthogonalEdgeStyle;rounded=0;orthogonalLoop=1;jettySize=auto;html=1;exitX=0.5;exitY=1;exitDx=0;exitDy=0;entryX=1;entryY=0.75;entryDx=0;entryDy=0;fontSize=14;fontColor=#4277BB;entryPerimeter=0;startArrow=classic;startFill=1;" edge="1" parent="ujxpVkBqCpxsbF_aywxT-58" source="ujxpVkBqCpxsbF_aywxT-125" target="ujxpVkBqCpxsbF_aywxT-120">
          <mxGeometry relative="1" as="geometry">
            <Array as="points">
              <mxPoint x="500" y="433" />
              <mxPoint x="134" y="433" />
              <mxPoint x="134" y="305" />
            </Array>
          </mxGeometry>
        </mxCell>
        <mxCell id="ujxpVkBqCpxsbF_aywxT-189" style="edgeStyle=elbowEdgeStyle;rounded=0;orthogonalLoop=1;jettySize=auto;html=1;exitX=1;exitY=0.5;exitDx=0;exitDy=0;entryX=0;entryY=0.5;entryDx=0;entryDy=0;entryPerimeter=0;fontSize=14;fontColor=#4277BB;startArrow=block;endArrow=classic;endFill=1;" edge="1" parent="ujxpVkBqCpxsbF_aywxT-58" source="ujxpVkBqCpxsbF_aywxT-125" target="ujxpVkBqCpxsbF_aywxT-135">
          <mxGeometry relative="1" as="geometry" />
        </mxCell>
        <mxCell id="ujxpVkBqCpxsbF_aywxT-125" value="&lt;font style=&quot;font-size: 14px&quot;&gt;API Gateway&lt;/font&gt;" style="aspect=fixed;perimeter=ellipsePerimeter;html=1;align=center;shadow=0;dashed=0;labelBackgroundColor=#ffffff;fontSize=12;spacingTop=4;image;image=img/lib/ibm/security/gateway.svg;strokeColor=#203959;strokeWidth=2;fillColor=none;fontColor=#4277BB;spacingBottom=1;" vertex="1" parent="ujxpVkBqCpxsbF_aywxT-58">
          <mxGeometry x="469" y="263.02" width="61.02" height="61.02" as="geometry" />
        </mxCell>
        <mxCell id="ujxpVkBqCpxsbF_aywxT-75" value="&lt;font style=&quot;font-size: 14px&quot;&gt;S3 Storage&lt;/font&gt;" style="aspect=fixed;perimeter=ellipsePerimeter;html=1;align=center;shadow=0;dashed=0;image;image=img/lib/ibm/data/data_services.svg;labelBackgroundColor=#ffffff;strokeColor=#666666;strokeWidth=2;fillColor=#C2952D;gradientColor=none;fontSize=12;fontColor=#4277BB;spacingTop=0;" vertex="1" parent="ujxpVkBqCpxsbF_aywxT-58">
          <mxGeometry x="204" y="476" width="53" height="53" as="geometry" />
        </mxCell>
        <mxCell id="ujxpVkBqCpxsbF_aywxT-135" value="AWS Athena" style="sketch=0;points=[[0,0,0],[0.25,0,0],[0.5,0,0],[0.75,0,0],[1,0,0],[0,1,0],[0.25,1,0],[0.5,1,0],[0.75,1,0],[1,1,0],[0,0.25,0],[0,0.5,0],[0,0.75,0],[1,0.25,0],[1,0.5,0],[1,0.75,0]];outlineConnect=0;fontColor=#4277BB;gradientColor=#00B09E;gradientDirection=north;fillColor=#00B09E;strokeColor=#ffffff;dashed=0;verticalLabelPosition=bottom;verticalAlign=top;align=center;html=1;fontSize=14;fontStyle=0;aspect=fixed;shape=mxgraph.aws4.resourceIcon;resIcon=mxgraph.aws4.athena;spacingBottom=2;spacingTop=7;" vertex="1" parent="ujxpVkBqCpxsbF_aywxT-58">
          <mxGeometry x="570.63" y="266.01" width="55" height="55" as="geometry" />
        </mxCell>
        <mxCell id="ujxpVkBqCpxsbF_aywxT-190" style="edgeStyle=elbowEdgeStyle;rounded=0;orthogonalLoop=1;jettySize=auto;html=1;exitX=1.002;exitY=0.473;exitDx=0;exitDy=0;entryX=0;entryY=0.5;entryDx=0;entryDy=0;fontSize=14;fontColor=#4277BB;startArrow=block;endArrow=classic;endFill=1;exitPerimeter=0;" edge="1" parent="ujxpVkBqCpxsbF_aywxT-58" source="ujxpVkBqCpxsbF_aywxT-144" target="ujxpVkBqCpxsbF_aywxT-125">
          <mxGeometry relative="1" as="geometry">
            <Array as="points">
              <mxPoint x="434" y="294" />
              <mxPoint x="439" y="294" />
            </Array>
          </mxGeometry>
        </mxCell>
        <mxCell id="ujxpVkBqCpxsbF_aywxT-144" value="" style="rounded=0;whiteSpace=wrap;html=1;labelBackgroundColor=#FFFFFF;strokeWidth=2;fillColor=none;fontSize=14;fontColor=#4277BB;strokeColor=#4277bb;" vertex="1" parent="ujxpVkBqCpxsbF_aywxT-58">
          <mxGeometry x="312" y="183" width="110" height="233.5" as="geometry" />
        </mxCell>
        <mxCell id="ujxpVkBqCpxsbF_aywxT-147" value="" style="group" vertex="1" connectable="0" parent="ujxpVkBqCpxsbF_aywxT-58">
          <mxGeometry x="625.63" y="361" width="288" height="187" as="geometry" />
        </mxCell>
        <mxCell id="ujxpVkBqCpxsbF_aywxT-142" value="" style="rounded=0;whiteSpace=wrap;html=1;labelBackgroundColor=#FFFFFF;strokeWidth=2;fillColor=none;fontSize=14;fontColor=#4277BB;strokeColor=#4277bb;" vertex="1" parent="ujxpVkBqCpxsbF_aywxT-147">
          <mxGeometry x="46" y="5" width="223" height="175" as="geometry" />
        </mxCell>
        <mxCell id="ujxpVkBqCpxsbF_aywxT-71" value="&lt;div style=&quot;font-size: 14px&quot;&gt;&lt;font color=&quot;#4277bb&quot;&gt;Harvester&lt;/font&gt;&lt;/div&gt;" style="outlineConnect=0;dashed=0;verticalLabelPosition=bottom;verticalAlign=top;align=center;html=1;shape=mxgraph.aws3.lambda_function;gradientColor=none;fillColor=#00b09e;spacingTop=0;" vertex="1" parent="ujxpVkBqCpxsbF_aywxT-147">
          <mxGeometry x="66.75" y="20" width="31.25" height="30.5" as="geometry" />
        </mxCell>
        <mxCell id="ujxpVkBqCpxsbF_aywxT-132" value="&lt;div style=&quot;font-size: 14px&quot;&gt;&lt;font color=&quot;#4277bb&quot;&gt;GeoCore&lt;/font&gt;&lt;/div&gt;&lt;div style=&quot;font-size: 14px&quot;&gt;&lt;font color=&quot;#4277bb&quot;&gt;Parquet&lt;/font&gt;&lt;/div&gt;" style="outlineConnect=0;dashed=0;verticalLabelPosition=bottom;verticalAlign=top;align=center;html=1;shape=mxgraph.aws3.lambda_function;gradientColor=none;fillColor=#00b09e;spacingTop=0;" vertex="1" parent="ujxpVkBqCpxsbF_aywxT-147">
          <mxGeometry x="213" y="20" width="31.25" height="30.5" as="geometry" />
        </mxCell>
        <mxCell id="ujxpVkBqCpxsbF_aywxT-137" value="&lt;font style=&quot;font-size: 14px&quot;&gt;S3 Buckets&lt;/font&gt;" style="aspect=fixed;perimeter=ellipsePerimeter;html=1;align=center;shadow=0;dashed=0;image;image=img/lib/ibm/data/data_services.svg;labelBackgroundColor=#ffffff;strokeColor=#666666;strokeWidth=2;fillColor=#C2952D;gradientColor=none;fontSize=12;fontColor=#4277BB;spacingTop=0;" vertex="1" parent="ujxpVkBqCpxsbF_aywxT-147">
          <mxGeometry x="207" y="110" width="38" height="38" as="geometry" />
        </mxCell>
        <mxCell id="ujxpVkBqCpxsbF_aywxT-143" value="GeoCore" style="text;html=1;strokeColor=none;fillColor=none;align=center;verticalAlign=middle;whiteSpace=wrap;rounded=0;labelBackgroundColor=#FFFFFF;fontColor=#4277BB;fontSize=14;" vertex="1" parent="ujxpVkBqCpxsbF_aywxT-147">
          <mxGeometry x="45.629999999999995" y="-7" width="72.37" height="20" as="geometry" />
        </mxCell>
        <mxCell id="ujxpVkBqCpxsbF_aywxT-138" value="&lt;div style=&quot;font-size: 14px&quot;&gt;&lt;font color=&quot;#4277bb&quot;&gt;GeoCore&lt;/font&gt;&lt;/div&gt;&lt;div style=&quot;font-size: 14px&quot;&gt;&lt;font color=&quot;#4277bb&quot;&gt;Transform&lt;/font&gt;&lt;/div&gt;" style="outlineConnect=0;dashed=0;verticalLabelPosition=bottom;verticalAlign=top;align=center;html=1;shape=mxgraph.aws3.lambda_function;gradientColor=none;fillColor=#00b09e;spacingTop=0;" vertex="1" parent="ujxpVkBqCpxsbF_aywxT-147">
          <mxGeometry x="133.37" y="20" width="31.25" height="30.5" as="geometry" />
        </mxCell>
        <mxCell id="ujxpVkBqCpxsbF_aywxT-149" value="&lt;div style=&quot;font-size: 14px&quot;&gt;&lt;br&gt;&lt;/div&gt;" style="outlineConnect=0;dashed=0;verticalLabelPosition=bottom;verticalAlign=top;align=center;html=1;shape=mxgraph.aws3.lambda_function;gradientColor=none;fillColor=#00b09e;spacingTop=0;" vertex="1" parent="ujxpVkBqCpxsbF_aywxT-58">
          <mxGeometry x="981" y="450.5" width="31.25" height="30.5" as="geometry" />
        </mxCell>
        <mxCell id="ujxpVkBqCpxsbF_aywxT-151" value="OGC API - Records" style="text;html=1;strokeColor=none;fillColor=none;align=center;verticalAlign=middle;whiteSpace=wrap;rounded=0;labelBackgroundColor=#FFFFFF;fontColor=#4277BB;fontSize=14;" vertex="1" parent="ujxpVkBqCpxsbF_aywxT-58">
          <mxGeometry x="912.63" y="355.04" width="128.37" height="20" as="geometry" />
        </mxCell>
        <mxCell id="ujxpVkBqCpxsbF_aywxT-152" value="&lt;div style=&quot;font-size: 14px&quot;&gt;&lt;font color=&quot;#4277bb&quot;&gt;foundational&lt;/font&gt;&lt;/div&gt;" style="outlineConnect=0;dashed=0;verticalLabelPosition=bottom;verticalAlign=top;align=center;html=1;shape=mxgraph.aws3.lambda_function;gradientColor=none;fillColor=#00b09e;spacingTop=0;" vertex="1" parent="ujxpVkBqCpxsbF_aywxT-58">
          <mxGeometry x="844.74" y="174.53999999999994" width="31.25" height="30.5" as="geometry" />
        </mxCell>
        <mxCell id="ujxpVkBqCpxsbF_aywxT-156" value="&lt;div style=&quot;font-size: 14px&quot;&gt;&lt;font color=&quot;#4277bb&quot;&gt;featured&lt;/font&gt;&lt;/div&gt;" style="outlineConnect=0;dashed=0;verticalLabelPosition=bottom;verticalAlign=top;align=center;html=1;shape=mxgraph.aws3.lambda_function;gradientColor=none;fillColor=#00b09e;spacingTop=0;" vertex="1" parent="ujxpVkBqCpxsbF_aywxT-58">
          <mxGeometry x="699.9300000000001" y="245.5" width="31.25" height="30.5" as="geometry" />
        </mxCell>
        <mxCell id="ujxpVkBqCpxsbF_aywxT-78" value="&lt;span style=&quot;font-size: 14px&quot;&gt;AWS Global&lt;/span&gt;" style="aspect=fixed;perimeter=ellipsePerimeter;html=1;align=left;shadow=0;dashed=0;image;image=img/lib/ibm/blockchain/certificate_authority.svg;labelBackgroundColor=#ffffff;strokeColor=#666666;strokeWidth=3;fillColor=#C2952D;gradientColor=none;fontSize=12;fontColor=#4277BB;labelPosition=right;verticalLabelPosition=middle;verticalAlign=middle;" vertex="1" parent="ujxpVkBqCpxsbF_aywxT-58">
          <mxGeometry x="168" y="15" width="32" height="32" as="geometry" />
        </mxCell>
        <mxCell id="ujxpVkBqCpxsbF_aywxT-155" value="&lt;div style=&quot;font-size: 14px&quot;&gt;&lt;font color=&quot;#4277bb&quot;&gt;id&lt;/font&gt;&lt;/div&gt;" style="outlineConnect=0;dashed=0;verticalLabelPosition=bottom;verticalAlign=top;align=center;html=1;shape=mxgraph.aws3.lambda_function;gradientColor=none;fillColor=#00b09e;spacingTop=0;" vertex="1" parent="ujxpVkBqCpxsbF_aywxT-58">
          <mxGeometry x="773.74" y="174.53999999999996" width="31.25" height="30.5" as="geometry" />
        </mxCell>
        <mxCell id="ujxpVkBqCpxsbF_aywxT-162" value="&lt;div style=&quot;font-size: 14px&quot;&gt;&lt;font color=&quot;#4277bb&quot;&gt;analytics&lt;/font&gt;&lt;/div&gt;" style="outlineConnect=0;dashed=0;verticalLabelPosition=bottom;verticalAlign=top;align=center;html=1;shape=mxgraph.aws3.lambda_function;gradientColor=none;fillColor=#00b09e;spacingTop=0;" vertex="1" parent="ujxpVkBqCpxsbF_aywxT-58">
          <mxGeometry x="776" y="244.99999999999994" width="31.25" height="30.5" as="geometry" />
        </mxCell>
        <mxCell id="ujxpVkBqCpxsbF_aywxT-191" style="edgeStyle=elbowEdgeStyle;rounded=0;orthogonalLoop=1;jettySize=auto;html=1;exitX=1;exitY=0.5;exitDx=0;exitDy=0;entryX=-0.033;entryY=0.466;entryDx=0;entryDy=0;entryPerimeter=0;fontSize=14;fontColor=#4277BB;startArrow=block;endArrow=classic;endFill=1;" edge="1" parent="ujxpVkBqCpxsbF_aywxT-58" source="ujxpVkBqCpxsbF_aywxT-164" target="ujxpVkBqCpxsbF_aywxT-144">
          <mxGeometry relative="1" as="geometry" />
        </mxCell>
        <mxCell id="ujxpVkBqCpxsbF_aywxT-164" value="&lt;font style=&quot;font-size: 14px&quot;&gt;Internet&lt;br&gt;Gateway&lt;/font&gt;" style="aspect=fixed;perimeter=ellipsePerimeter;html=1;align=center;shadow=0;dashed=0;labelBackgroundColor=#ffffff;fontSize=12;spacingTop=0;image;image=img/lib/ibm/security/gateway.svg;strokeColor=#203959;strokeWidth=2;fillColor=none;fontColor=#4277BB;" vertex="1" parent="ujxpVkBqCpxsbF_aywxT-58">
          <mxGeometry x="211.49" y="262.02" width="61.02" height="61.02" as="geometry" />
        </mxCell>
        <mxCell id="ujxpVkBqCpxsbF_aywxT-166" value="EXTERNAL &lt;br&gt;HNAP CSW" style="text;html=1;align=left;verticalAlign=top;fontColor=#4277BB;shadow=0;dashed=0;strokeColor=none;fillColor=none;labelBackgroundColor=none;fontStyle=1;fontSize=16;spacingLeft=5;" vertex="1" parent="ujxpVkBqCpxsbF_aywxT-58">
          <mxGeometry x="21" y="429.5" width="101" height="55" as="geometry" />
        </mxCell>
        <mxCell id="ujxpVkBqCpxsbF_aywxT-173" value="" style="aspect=fixed;perimeter=ellipsePerimeter;html=1;align=center;shadow=0;dashed=0;image;image=img/lib/ibm/data/data_services.svg;labelBackgroundColor=#ffffff;strokeColor=#666666;strokeWidth=2;fillColor=#C2952D;gradientColor=none;fontSize=12;fontColor=#4277BB;spacingTop=0;" vertex="1" parent="ujxpVkBqCpxsbF_aywxT-58">
          <mxGeometry x="382" y="242.38" width="26" height="26" as="geometry" />
        </mxCell>
        <mxCell id="ujxpVkBqCpxsbF_aywxT-176" value="" style="aspect=fixed;perimeter=ellipsePerimeter;html=1;align=center;shadow=0;dashed=0;image;image=img/lib/ibm/data/data_services.svg;labelBackgroundColor=#ffffff;strokeColor=#666666;strokeWidth=2;fillColor=#C2952D;gradientColor=none;fontSize=12;fontColor=#4277BB;spacingTop=0;" vertex="1" parent="ujxpVkBqCpxsbF_aywxT-58">
          <mxGeometry x="390" y="358" width="23.54" height="23.54" as="geometry" />
        </mxCell>
        <mxCell id="ujxpVkBqCpxsbF_aywxT-177" value="" style="shape=image;html=1;verticalAlign=top;verticalLabelPosition=bottom;labelBackgroundColor=#ffffff;imageAspect=0;aspect=fixed;image=https://cdn0.iconfinder.com/data/icons/font-awesome-brands-vol-2/512/react-128.png;dashed=1;fontSize=14;fillColor=#335D80;imageBackground=none;fontColor=#3333FF;" vertex="1" parent="ujxpVkBqCpxsbF_aywxT-58">
          <mxGeometry x="364" y="355.03999999999996" width="28" height="28" as="geometry" />
        </mxCell>
        <mxCell id="ujxpVkBqCpxsbF_aywxT-178" value="EXTERNAL &lt;br&gt;RCS API" style="text;html=1;align=left;verticalAlign=top;fontColor=#4277BB;shadow=0;dashed=0;strokeColor=none;fillColor=none;labelBackgroundColor=none;fontStyle=1;fontSize=16;spacingLeft=5;" vertex="1" parent="ujxpVkBqCpxsbF_aywxT-58">
          <mxGeometry x="21" y="380" width="101" height="55" as="geometry" />
        </mxCell>
        <mxCell id="ujxpVkBqCpxsbF_aywxT-183" value="" style="shape=image;verticalLabelPosition=bottom;verticalAlign=top;imageAspect=0;aspect=fixed;image=data:image/jpeg,/9j/4AAQSkZJRgABAQAAAQABAAD/2wBDAAYEBQYFBAYGBQYHBwYIChAKCgkJChQODwwQFxQYGBcUFhYaHSUfGhsjHBYWICwgIyYnKSopGR8tMC0oMCUoKSj/2wBDAQcHBwoIChMKChMoGhYaKCgoKCgoKCgoKCgoKCgoKCgoKCgoKCgoKCgoKCgoKCgoKCgoKCgoKCgoKCgoKCgoKCj/wgARCAEGAmQDASIAAhEBAxEB/8QAHAABAAIDAQEBAAAAAAAAAAAAAAUHAgQGAwEI/8QAGQEBAAMBAQAAAAAAAAAAAAAAAAECBAMF/9oADAMBAAIQAxAAAAG1AAAAAAAAAAAAAAAAAAAAAAAAAAAAAAAAAAPn1DW8JDR4dPmcSxaegygZnbm9Ro5gAAD4fXOcn1rY0NW7RXtdTlXSOo9OT+S7uVrFSbmzpjo+E2Ii5TPYEgAAADEyw4ngy2I2s5Y7Xfr6MLw9aF7ksFhmCFJmCrTQO+8ob3J7pasgy/Vb2IegB4Hvo8BxxZujzMkS8zxUEXlnRtknUgAAiNSUi/J3trVz52nx7XnAADk7RL1/GY7+Y9u0ePr2fW5rcDN9QzWit/2c5CJ+a+yREyXppI3VYd1TjKi+gAAD5Vc1wQsOcmTz9AY5DmK1vHxOe6diQ9PyHRn2wPYAIeYFKStkUuXs5LrTzqDoOVPaz5DYAGGY4avL85Ax7GhbrN8AGlFSsV5e1ljln7dAPb8wJDl4pp8T9+elyEl1t9sn22PO6BysAAAfOXikxW3h5cPKdLFWdbpsOekdHpyArIDDOCKn7ivbzNwAAADmulrw4q8qvtYAAHmenA9Fy5A2/QtulUWZVt9GYAAAKc6DZ5YuMAGlFSsV5e1ljln7dAPb8wJR9WTEJw8gK5sbGrv521XOqOXjTYriNmevXOV809c4eNUsbnuC86ZpOMOeNt+tkX0M/esNfqaG/EdRurYT5983qA5PrOXKsvugr7MgAAISbp4s/hN/TM7HpHIuWGqCUO0hUucfFW7NlNy1qjg9zsOXK3vCir1AAAAOWrmwuALsABpRUrFeXtZY5Z+3QD3PMQ8xX1eHNDP4oAAAAAA3ltHo+i6Hrv8ADPxrjTu9YL49Hn7WxAdFivAdLT9gHRjPdo7woC3uDwLgY5AACnrhp46P28exKWtao7ZJz3AAABHSI/P95VRPFjgAAGscBo8/ZB1wANKKlYry9rLHLP26Ae35mNQ2ZVXTJmx+8fP+vn3jzPn2Kj4fXzaW1k1NW68VJ2FJX1ct02el02bsFy/Na529Q2UdHo2fnt7VzPV7SXY8danSJX75+mDoBFU3fMCcbZlI5F4OAmjpXORh21N5RB3ffc30hXnIXhWR3knQ/blgoffNlHwJ1VYROZaMrrbJz1SX5xht9RQnXFmoKUNlHwJ1VUaA9Lk094AA0oqVivL2sscs/boB7fmc7W/f8B6HINFfly1FceO+prybHMX7bw8vX5qTbcc5C9I72HrzQ7x1HM4tNAvCR9bLz3+afrWGe3hgehzmbPg/nn9JbZjZLhYADw43uRUUbd4pDfuAV/2e6AAOY4q3BQmv+gvAoeYuXM4XtvQAAQ3CWoKH1P0F4FDS1z+hwXb+wAAA0oqVivL2sscs/boB7fmcnwNi116PIO9fu1qImRzi0JLx0xlh9WAgAbETr9PO9Nkv56OpXPOfTUN/NPQtrcZkKx7eq+NrWlI6RzX+iAADX0q0plsmUpyQrxtZr7HXeCRgZoWOR1bjvQ61BTRmEgDzPRC6B1LjyOwcxKEmEgAAaUVKxXl7WWOWft0A9vzIarrmpvbzxGugAAAA3YnSz7HrM9uN7PZictpTjeeitNcsTVQdLWZjrPvIed05vQ15ffSxN7T3fM6gAAcBzHY8dn8YfK5+/wCogp3R7j584K3SV5TxTAAD18h2XU1J1Key09yLhzEDimAAHz6JDuK3zLYR8hFgANKKlYry9zLHLP16Ae35iubGdIpbG6dfTSn1tecqp+Wx7FQ7dt+tZrOY7RymHl/Hn6T08bwUJ3r0vN/GugWgTNZ+2Zj5ef01Ku2NTZR1vK2PSZba8fbD0AAA8eG79XlVfSdgjkPO+rleSzwmoBI96Vv423rJq1KxSHyU64298i1fQtkQkxyW/YvvCuNC1sSpnQc/MATdgVNa8TkEgaUVKxXl7WWOWft0A9vzAl5enP1t3rdSl/vSLm8KewRa0fXa7soaGdY+/DpAIAPvaUmKsbPS8/p6Vh8j9dR7aKzHcxc95nX3yOcgAAAAIWa5s4gTV8+5ljyJFgNeLnAAPh9+cnzCLD0+A+y7twhHXciAHy0avs1O8IkDSipWK8vayxyz9ugHueYAr+wPO8U18nIP0uQWgAAAbMTrSXVdXmtFTHnxWa09XHh83UH3rV1up1mLpsSGHtluAAAAAA57odBFZvn2YAtjPl+oiQSQXMosNFSo5Dr6rPATA7I5H0tMmq/CzqwR9As2srNTvCJA0oqVivL2sscs/boB7fmBIDxryyfO8U187fjPQ5eY6CWnOc8bJWJKZ7cn1DmuE9RzvFRuiu9omqo2Dw6Lbn8V8ZVs5rvoAAAAAAAVrHWPXU1xB96XmR3UfyozwD5NQ2wWRWFrVymOCFg196FruC1Yma5H59mAFm1lZqd4RIGlFSsV5e1ljln7dAPb8wJAAYRsr8ObnmtMSGrAc50jpYKJ8dVfLy2fvauqkdyswft1MpwnnOgkN3NfU3/T0pPz6AAAAAAAACFmiKp8rT5eXKN/QQY/T63Jw56wdvYiUJNipFichMRT7gZPsoR2dg8aRLcGnZte2IncESBpRUpF+VtZY58O0+Pc8wAAABjkPHx3BGeUt8If5MCI9ZP6aPts/Tzz+gAAAAAAAAAAABjkPHPMAAAAfPL2GOQAAAACP5219U8j0G34zOjj6D08YAAAAAAAAAAAAAAAAAAAAAAAAAAAAAAAAAD4Q1/I5X+5ktn6dKBL/8QAMBAAAgICAAQFAgYCAwEAAAAAAwQBAgAFEBEgMAYSExQyITMVIjE0QEE1YBYkUCP/2gAIAQEAAQUC/wBGtea57mM9zGQxTInn/pRg+bjS80mlovXtlMMWE26tMtvMndnz8bYyu7LlN4PBbNQmVtFo/gWtFYNtkhZO/VyPECuC3CRMpepI6Z+mMbZME38Qj5/8iwXiBe2LtAZjrYaAvBd+tXP+RZXxFXAblMs1tFo62a8r8FrcidlrbADLGzZNn99HOOHKcHewZW3RKYo8Bruz9I2G9rTGDlZsOliTTVu3y2pejDAMHAkuGyG9yJi0cNjsBI0dfO7IAkNNNI7bPwBvD6l0OR+W+t3dh5S0XrxMWgR7DdkNk/IOscNkaFzL6R2uHAZfFWTKW1m3G3PU18OFPn1uuiUq4+ZroFS5bA0x74PSrxlNerTKipXjMROWAK2W16lprHKva/TNxtJbkIrmIlohUilKjrwn647plmMcWKmXQrHWUzavVRXKSxCavS+pUQ6Cpxe14HIfSIibS7KVCcL2ilNnsLvE1yBXiJa9dOONqxaux0dLRaJrbR7OWepr7fCvy6tntIDlpm1uAh3LdPTVjB0qOvZaYosL8QY9yi4NunY8SO+Woh3MTWojRD1XHS/CfpGya9454eQ9S3U2uNsDIbLn8POeutniVznZBWzjQBUALq3uu9wMZLDuixVtXoa+3wr8unb7HlPFFMjl1VhKj7TjQ1RtMEaLmkVsQ3XaYrVk0sseGVPy9nxAf0dcEcmMKlRD6/E635dKb0dna0UqcsnP4dV9FLsbhb2r/hY35uhv7fCvy6Nw96NeXFFWzZwCoAXae2tBYUly3xJWzZgjqEe3dlUSbNWgdO8J6Wrn9FBQBXs+Kr/n8OD8+y6r2rSDbVIWbPcLsq+byzuS+XURHmmlYpXseKRcw6Unp7Tob+3wr8uLrFVQWtN7cOWau6gwdi960hjbgHjTp2eKq92SqL0WCyai4mDWObVsys10+Jv8bT6k7B9moAyjgG88UfvvCv7jCFGLCbhGmF8QijC75q2F2DZc+chQbLgtE5fB+HaZ4ij09SjHN7s+JI56tCeT/Q19vhX5cduz67XSJgwsHt2a5Xd2yN2PPxoOTux5bd2wu0avhL2JPFNQjZFVxrCvaKV2TkuFzRLeqfp8R182r58piecde8/y3hT4+Ka/9tRsyklebLnykSDZcFoWrYPw8PBaZIeDEMfR4jr5tWtb02ez4mty12tjzbHoa+3wr8uG0Y9up/BQ1lz4IdRUvatK7N+W7YIdilVBVcG2f9sSs844uh9wn/WjY9xr+vef5bwp8fFIua68Uk49QjTBiGKOxsA+uj/SJoZU7Hig3mP4cF6my6Gvt8K/Lhvi+drvrKmZlHWjXnDmoAexeu5bhpEvSowaoAnLY5tIf1UujerSs/pnfZNx9Y6t5/lvCnxdBDKt6TW2kd92p2tuv7bYeGm/JfrYLQAWC2Ofw2tIk+hr7fCvyyfpBieqburosMYtqBUytYrGP7EauMsEZJw1CPub5um/XNnh6tucdGxTo6sUdxE0+29rFLVvTp3NottPCnxzxGhysowRQ6DgnQ9N7RSux3BSta5yjy+blH3q0TNbafZw5XpvatK7jYy6TVJS81Eco6Gvt8K/LNnf00Iznxn6Zzjo55Rc18FrGr4HSxgElw8WGQrw7tim6NenZwo6VHTcu+iPggv7dKvTtNcN4bSxlCKtnVlfxDlN2jbLbpGMN4gDEObRprBDuW+lQsiHJjnG21FgSEtxXT3/ANBbNMmQcU4R1YeM71YcPPndnXa8r11w0XFw3Wq9fJ81Lo70ooDtUi5DAZwjiw8a3qw4deO7KCRnSKLDUD0tfb4V+Wb63LX8Z+uVpEDlcNslFbPYK5Ci8ZWla9LOwXXxncFJlpm1uKKl3CrhouLYOVTFe1r3zVL+4cn6QOecdJRUNRrw/S0m0zo8sm1XITatgtQ6TF/D31WWCqPof04GpZ07gcvS1M/JleWA1zZ8T0FazSsUr0P68DsM6NoWFEQWfkyvLAINnxPQREjpUdOpr7fCvyzxFP8A1eII8x+ojIR4XcK0w27JOHcYP1IJXcuANADdaooJg12DcNOt7dTdm9FBSf8A4fw5jnnoiyta17chFOVpWvaa+3wr8s8RftuirJ65DrUZ+IN5LzWWaYtkzM5yjsa7V2NlK1pV1sagmTkZLw06vuWc3TPrtJ/Y7BSjFWNipM1mLR/4DX2+Fflm/jmh/AAEh7oaqi85sNhRSDFucnAdLEuktVVfZte1V/oH0rHXsGoUAYtzExJu6lwkqUfRaYrBdktTLbiufjFsjcRg9otfK2reOm9q0gmzWpltxTPxicjcTlNwOcC8uXstfb4V+Wbevn13epW17J6e1sCEYaTPKNhtuWTMzPHSpenXNm17poFfOcWR1+ILTLXHw/bmpw/THNpFZKUhp6REuGyOzi88GGBr0Y2hiZe1rz1LOGXxJujVepr7fCvywlfPSazS3bXVOxi2kwABgrjj4VcdeK306dD175vXPJXNXXzOC7HiAM9GnBIU8meUbF73M9nUu8pzYL+5W7NLWHdNmrIelr7fCvy4bdQlXJ+mc46OcZzygDEwWqbvgtHGA1yoeLToFYb25i5/fRrUZcJSsUrsW4UBe03vmnHyGPsEpUlG9QSkwi1Mo6nyW4bpnq9IvL++hIsmWzbA9FrI+s1TZtkoNRhB3F06c3pt9LX2+FflxmInJXDOSmtOfh6mQirGQqCMrSlegpaCqxuF6Yxs2TdeuRs5cQ6ioyei4mj3ZNlazay1IpWndvaKUveSX4pK2aIusIFcMAZqvp2VviyR2MV1wQcdgv7hZTVfQYqCjhaItG1TgE8a28lonnHQ19vhX5cZvWJ58eeWMKuX2ClMvuVowm8nDbJsuT+aevW62zWUpFKsGouJ5q7ZuGrDzsGuR3dxfyo9CAfQV4nFUwlNcIHVM8ou6tTJ2q0Z+LL5+LL43sFzrcZ/RWeavQ19vhX5cdul7oEZ5rZ5rcOUduPrOu1PBtkaonGiNk4CpJSLCilaR3t7+140jmTtObXlJSkNPZR/Z9DX2+Ffl0bpL07d1RMzWIoCUjH9gJSDmIwTigv6VRVyO9vI5p8efKaWi1exumZ59FaXtnolyRFiOhH9n0Nfb4V+XRasWrs0ZUt2lwFYsppqUyIiIvaKVe3HPP1niir5ZDTKx33h+sp0aZnzD47Rv0BK7AwMVeCxxPf1D8dSmP0eDv7ToR/Z9DX2+Ffl0kpF67HXWXnrXSYYxXTCplKVpXHNqEGNNGanj/aanlwQ8pX+C+D27XGJmJX216x+LL4xtpmL2te3BbYnDixqsB/vjqSwRLhuG48vQj+z6Gvt8K/LqmMe1UWy9LDvkfmkOuaLgdJOLorr8L3rSrG5DTGnTtdIRXLKqsDwY8pXI/g7Bb3QLRNbdlcNmDUrFKbAXoucR3sO9dqxEGfZLHSj+z6Gvt8K/LrmMZWGeo0Ex4Oo6xhTiFhtyvTDbli+FJctugYrkwKMYMWDHla/xH0as4Udw36wiuciKlVR5s1Pcj/SekdLFIenpn4o/s+hr7fCvy7HLJrk05Y0pJsvqyRNk2Iz25s9Eue3NlUzTlNfOCSHXKiyosrTIj+MUVDVY1GETYHk/TOcZ+uDWOTF9TacCEYacXERs4bXsim0TXOcZH5sBr2CymoNWra55a9qxntWM9qxicTVXoa+HCnz7XLJrk0yRZIs9HPRz0cgWQPIpkV/lzETnpUyKxHZmOeelTIiI7jFvNfgtXnfu8s5Z5c8ueXOX/rGNy4jHN8pWK1/0ew/Nnt6Z7euQGkdH//EACkRAAECBgICAQQDAQAAAAAAAAEAAgMEEBESMSAhMkBREzBBUBQiQlL/2gAIAQMBAT8B/Rsw/wBL6DVEhFnIuWSyKuVkVl7cE3ani7bcLouoGrEcCQO1DmGxDYezL+Kdqr3hguUHh/YoBbi94YLlR5gxOhpSkHI5n2ZfxR1Wai5usgSNKHNPbtNnWHaEzD+V/Ih/KM3DCfOk+Kc4u7KgS5idnS6aLBDfsS/ijqkw/Bl/sNaXdBQZS3b10KNCB9eX8UdUmYZidBGA8fhYkbqGk6TZeI78Jkl/0UyG1mkXUaE4pvry/inao6jVg34WDfhaV1kr0ARNqDoevL+Kdqjq35BqJo0Jx4x5gQuvymTvf9h6Mv4o6o7mGq1kXV0tnjMg/UN6QQQwX9CX8UdUIusFisVisVpZK9QLIm6bxiQWxNpkqxpvxt9kVl/FHVSbLJZrJX4AXQFkTQD15fxR1Ui/MNWkTejR6VuUv4p2uBF0Ralliugi6ob7Mv4p2uZKuaWWKt7Uv4p2v0rWlxsE1uIso0SwsP0uZGkXu+a//8QALBEAAQMCBAUEAgMBAAAAAAAAAQACAwQREBIgMSEyQEFRExQiUlBhMDNCcf/aAAgBAgEBPwH8HKJALtKFVIoZxJ/3UyBzkKUd16DPC9FnhGnYnUxGyII36qpbleo3ZXA6GtLjYKOAMRNk+pA5U6d5WYnEk90HA9TV86bvjsocmX4IkAXKllL9JNk510xt+Kym2bqKr+xN3xeboEjiEah7hYr1As4WYLOEZPGDW3UUWcqSwZx6ir503fBxsP4Ws8qOIvTWhosFPJnOUKWLKwHp6vnTd8BAZRcJ1NI3siCN9AaUI/Ka3wo6bu5AW4BTy5fiFTx/6KqHWbbp6vnTd8KbkwquysrKybC89k2l+yaxrdsJpsvAbqKIyG5wkPqPsEemq+dN3wpuTAgFZG+Fkb40E2UlR2aooS/iUBbgFPJlFlTM/wBI76HPshJ56Gr503fClPAjUTbdPqWjZF75Co6e3F2D3hguVxlej8GaXb4N26Cr503fCOQsN17r9L3Q8L3Q8I1XgJ1Q8qz3ptN9k1gbtg5waLlSSGQqGLIFUusLaS26DANN9N9dXzpu+McIkF7r2v7Xtf2hTNQhYO2h8gZunvdIVDDk4ndE24qR+d1+gtoONXzpu+Mb8humuDhcaSbKSp+qDXSlRxBmE8t/iOivicavnTd9EchYUyQP2wdK0d06q+q+cqZTfZAAcAiQN1LPfg3pjjV86bvpBsi4ndMaw7lNjiCzNCMrB3Tqn6pzy7fpzjVf2Ju4/CvkDBcp7s7rlU0JJzH8L6bXcSEIWeMf/8QAQhAAAgADAgoGCAMHBQEAAAAAAQIAAxEhMQQQEiAiIzJBUXETMFJhgZEzQmJykqHB0UCCsRQkNENgouFQY3ODspP/2gAIAQEABj8C/obYMbJjZMW2RZ/RVVvx2eUVHWayYq8zGiWf3RGhIPi0WSpfnHo5XzjSkp4GNOS45Wx6XJPBrIqpBHd+BqxAHfBBnqTwW2LFnH8sWpOH5Y9NkH2xSKoysO451sUablNwS2NDB5h5mkfwp+ONbLmy/nGomq/I9Rr5qJzMatJkzwpFmCn440sGccmrFOk6M+2KRVSCO7qK8cdNx6oqlZrezd5xtdGvBPvFTaeObfFx8o2W8orLZpZ7rIpPpNHEWGNW+l2Tf1tsFMDAdu2dn/MZU+Yznvu8oyZSM54KKxZg7D3iBH8OfBhGulTE94RlSXZDxWAmHD/sX6wCDUHHp6Uw7KC8xrWonYW6MmRLZz7Ii0S05tG3J8zFTJyx7BrFRVXHgRGRhuku6YLxzgMpBU3EZjTJrBUW8mMjBKypfa9Y/aKm1jv3mNGQQOL2RfJHjFgltyaNfKeXzEVwdynduPhAlzNXP4bjyz/HGvPqNM1fcgvMUc5KdhczJlIznuEa1lljzMabTH8aRoyE8RWNFFHhjtEaUtD4RUyErxFkAW+PWGVJNMG/9/4gS5Kl3O4QGws9K/ZGzGSihRwAx2wWljoZnFLvKOjninAi5uUa9jpWrL7GLK2pjWIvGGmTWyna8mBNw2oG6X94CS1CqNwzNatH3Ot4jImWqdlx60CTNP7ux+A/bGWY0UWkx2ZC7K/UxRNGWu0/CNUlX7bWnMowBB3GC+BaD9jcftBVgVZTaN4joMIOuAsPbGd44xzzzKwehm723LBZiWY3k48iUpZuAjKws5R7AujJRQo4AdUXmGzhxjpsr8m6kVWxxevDqRgso2tbM5cIWXKWrtYBGStsw7T8c8ZahqGoqLjiqYeb6lyco/apo0R6Mce/PaVNFh+UPJm7S/OOhmGsyVZzGIYIhs2pn0ELKWwXs3AQsuUoVFuGeZ8ldel/tCFmSjR1tBhJy+teOBzfHGOecZGDm313G7uGZRNFBtPGRKWnE7z1eVMNu5d5jLmeA4YuntCJ8+oJNwtiZOPrmsNhT3nRTl1TgbUzQEJKW9zkwqIKKooOol4St40G+kSTufQPjBY3C2Jk5r3NY6UjTm6Xhu6l1XYfTWJ0g++Prm+OMc83opR1rb+yMzIWxRtNwhZcsUUdWUwejvx3CC8xspjvxZC2KNpuEKiCiiFEunStdXhAmJ4jgc6eReRk+cWRKlD1Vp1WDJzaMo/y0Jz6uwUd8Wz1J4LbEyRLlzDlDaNlIDdk1icy+stB4wF4mkBRcLOpkTey2T5xI9qq5vjjHPMaY3gOJgs5qxtOYJcmapbfWwk9TV2AHfGrrNbuuijtROyt2PIl+J4QEl+J4w0yYaAQ02ZtN8oF5R9Fhnf9iwnvD9epaXNm0dbxkmG/Z3ysm+yJX/H9Ywg+yMWsmKnM0j02V7orGqkzG52Rq1ly/nGnhEzkLI3ufONDB5lO+z9Y0+jl8zWNdPdu5RSFQXBlEYMP9xf16pu5l/WMG/5FzfHGOeYQDoS7Bnaua691Y0sh/CkaUjyaLZMyPRzYskvGjIHi0WMqe6IrMZmPecyiWKL24RkSx48YLMaKLzFlkpdkfXEZzbMu7nnMeywPzgHgawCOowjw/SMK5rEhuKEfOHMggFrDUVjWYRMpwBp+kdpvMxoYPMpxNkaxpcv5xrMIduQpHocs+2axq0VeQpmN7LA/OJL8HU/PqgO04jBh/uDN8cY542I220V/BZc+qS+G8wEljJUboLMQFG8xkJUSB/diWXL2mhZaXD5xKRL65T8oqLsydK7SkRb4xLqdNNBuowjw/SMK5rEmaPUah8YlidXoy1GpHoA3vWxq0VOQp1M6VvZTSO+JU0esvUypI9QZRjK3S1JzfHGOeNZY/lj5/gNUtnaN0B31k3jwxF5rZKxTZki5fvj6eaNY1w4CGmTNlYeY+0xgKdqXo5rNTVzdJfrFXOpex+7v6jCPD9IwrmsTJJ9YUhkmCjCwiAGOul2N9+rmLTRbTWGwV7m0k+o6h5sw0RRUw819pzXlBmtfONfDN8cY54qw8w+sa9doJRe01kVnHpTw3RRRQYskac3sj6xlzjXgNwx9LM9Cp+I4uiQ6uWfM4p7+pYPHNMtrDercDDS5q5LrYRAk4TUyPVbs/wCIDIQym4jOnlSCKi7lGFc1xHDJQs/mD6wJ0q8buIjLlG31l3rnFnICi8mFOCtkypZ0fb590dIlhuZeBxaPpktT7QCKqynxBjo5tFwgf3d4zizkKovJjIl2YOps9rvgIa9Etrn6RQXZvjjHPFPbfk5ttkX5uhJmH8sbAQe0Y100nuWyNCUteJtOOs5wvdGTIrKTj6xzKXSxtN9ICIMlRcI6GU2ubh6oxonrUqeed2Zw2XjIwhMk7juMaiYVHZvHlH7zIPNDFsxl95THpq8lMamVMc99kUZ+jTspAlyULt2Vh+kasyZaQLhioboM3BVLSd6C9f8AECZJco3FYC4ZL/On2jRwiX4mkWTU+KNPCJQ/NGpypzd1g841zUTsLdGjoyvWmfaFlylyUXGZ+DDXesvb/wAxQ5SOp5EQEwpelXtDaiyeqng9kWTZZ/NGnPlD80ams5u6weca5tDci3RSUKJ60w3CBKkigHzzvHGOeI97AZlIVaXCkWypZ/LHoJfwx6CX5RZJl/DGioGbRnq3ZW0xSQvRDibTBZiWY7zmZKWKNpuECXKFFEVNrnZXjBdzVjaTiWuwmk0W3Z5SagdTuMVwWYZfstaIsliYPYaLcGnfDFmDTvhj0OQPbaP3mdUcJf3jIkIFH65pdNTN4rv5iNFBNXin2ikxGX3hSPVjRFeUaEhgOL6IjKwt+k9hbBAVAFUXAZusFHFzrfFZWTOXyMUmynT3lj1Y0flGrkPTi2iIysMmZXsJd5wElqFUXAZ/jjXnilj28yUOLj9c/WTUXmY0S0z3RGplKve1saya1OAsGdZoyhe/2gS5S5KiMt/AcYMyadI/LGMoUmPpND0Ok+iIl+6P0/CWx6NPhjRAHLq7ZaeUaKgch1XjjHPFK9/6ZujPmj80fxEyP4hvlH8Q8aU+b8UWsx5nqQ+EgpK7O9oCoAFG4RlPf6q7zBmTTbuHDHlN6OXaeeIquxL0Rz3xL90dTWY4Ud8U6dYqpqP9B8cY54q8HH4HIkqWb9IEyaekm/IYskac7cv3gzJrZTHGqIKs1ghZa+J4mCw2zYvPEo7uoy72NiiMua2U2KqWpvSFdDotbm1Y0EbeWfZtjRkseZj0A+KNKQfBo0iU94RVSCOIzquwUd8beV7orGjKc+MWSP7otkf3Rpy3X5xRZgrwNnU+OMc8U6m4V6/JRSzcBGVhRyR2FvjIlKFXgIqboMvBDU75n2gliSTeTmdPNGsbZHZGIkHVrYsS14sOplruC1zGXstmFMGox7Zuis1y/POypTFT3RkYTRW3NuOPKmtTh3xSTq18zFZjFj35+g1V7LXRo2OL1z/HGOeJlNxFIKG9TTrNTLJHG4RXCZn5U+8ZMlAo7sVHNX7K3xRtGX2BmidNGpW4do4v2eWdJtruGIHsivUy54uGicwZW05ysVTdGRLqJP8A66oYPNu9Q/TEyjbFq8+qDoaMLjAcWG4jgc7xxjnjd5ctmR7agb40gRzi/NsjQkzD+WLUVPeMa6ceSiKrLBbi1uPWvpdkXwRJ1S8d8d+bbUSVvPHugKooosAjKvc2KOMFnNWNpOIv2j1JRxVTeIrg+mvA3xToGgTMJIJFyC7H+zpzf7Z3opnwmKG/NR3BDG/FlDZmW+OKgtPdFkl/GyPQ/MRrUZOYzQvqzLM7xxjnmWiLZUv4YtkS/hj+Hl+Ufw8v4Y9DL+GNFQOQzKzHVR3mNVWae66Nro14J98+2oki9uPKAktQqi4CDMmmgHzgzJl+4cMQVbzZAUXCzrmY3AVhna9jXMoLEG00UloB378VJqBo4yjccVQuSnaaKkdI/FsbKNsWrzgNhXwCKS0VeQx0IqI6SUNWbxwOYrj1TWK5vjjHPMoWAObpTEHjFs9PC2NEO/IRqpHxGPSZA9gUirEk8T1AmTNGT82gKgoouEGZNNFEZbWKNleGPpTusHXv7Wjmou+888xpbXGAzayZxOdbGlOSL2P5Y/mfDH8z4YmSxl1Is0c2UfZGb44xzzMpRrk2e/uiyNpvONpvPFd1YAtJ3CBMwscpf3xZc02bhxjKmWAbK8MYRbzCqtw69PfzEHtDqymDUPtm6KzXZufVSfcGb44xzzThEoaB2xwPHrtUuh2zdGjpTN7nFk7U3cgjpJzZTfpmaW2b/wAADwcZgPC2AwuNvU/s6Hvf7ZuijnkI9FM+GKmU9PdzZPuDN8cY55pBFQYykqZJu9nu6vJkoW/SA2EnpD2RdFAKCCzkBRvMFME/+h+kVNpO85gd9rcOH4Gam+lmb0DbS7PeMzIT0rXd3fFCekTg33igOS/ZbHMfi2Ys+YMpmuruxzvcObJ9wZvjjHPOKsAVN4MF5ILSfmvUaEsgdprBFcIPSNwuEZKKFXgMRWXrZnAXCNc9R2RdmUEBpg0uHD8Gy+obVzAQaEbxFJ65ftC+P5nwxTB0p7TQWc5TG8nHRj0icDf5wJiAgHjB55iAHSSwjGcHlm31z9M2T7gzfHGOfUF8Gorb03GMmYpVuBxUW090WSskcXsjXzfBIrLljK7RtOLKdgo4mCJIM1vIRrGovZW7N0BZxiy1uP4TJG2LVMFWFGF46oS0vN54CAq2AWRMG4nKGZlS2KtxEW9GfCKF8kezZnSfcGb44xz6nJmrX6RpSa97GsatVA7sWsmIvMxq8qYe4Rq1SWPMxWa7Oe/N0Fr3xWYcru3R3fhsoaM0b+POMiauS3UZEoVb9IoLXO02IFPSrd3wQRQjdnKiCrGJiD1TTMk+4M3xxjn1dlkemnLyaKqytzj0deUeifyj0T+UeiaNkDmY038o2anvt/FZM1Qw74rg7/laNKS3hbFtRzi+LLY0JL+VIrhD0HZWMmUoUZldmZ2hGxljikaQI5iL40QTyjYyBxaNG1jex3xOIkzCCx3R6CZ5R6CZ5R6CZ5RJDChCizNHPGvP/UbRGwvlFgA6m2NhfKLB1lOGOu4f0TRL8dl3GKD+iLWaN8b4urmf/8QAKxAAAQIDBgcBAQEBAQAAAAAAAQARITFRECBBYXGhMIGRscHR8OHxQGBQ/9oACAEBAAE/If8AhTko8TDK1EMxaghA5OP+KA6F32vaXGpDHEg7i8oI8xXNbqUOPNNIqT1I2EDMWM0Iw8/II2gAbBPes7FE/wDhJQFiTIyCdXtQ/bQ8ojsA+UfAiMCb5LPrT14gBMARkCLCfshmDaj9kI4sZflQohVgOyfmTROk+A7skidJp8B6sHdEXkM/ynsIyEHjIsAO9khc9yJOOBBgh32/EX4JgIpiA4SCj+APOPLsiH5gRN3KJiZE0JHH6lZt0ND4BlQPg7IA2chhy4pAhJgIkolIkZbT4FlVIoNJAs/ovsX1MGaBuSanypDtSgdZLMOa39TfJBQ5PIQywDggwNo5F5LMhmjXLYQ615phnTDjamSGvz77IgEC/FEAOYe0miLmRmIjuEyHMsLoMdUGmrkOCLgCCPIBHjVh7Hw6IndEmaPkKHvWwP3siBHnPpBtve6ONnEI85LONJ9ZBTg39bxfGE2iY2TgT2X0JDNOfQYda3MlIvdUxGnh/JAw4ZtbI3M18hbEQBNZIA6rcEEoaBBEBcOiiyTQcnPDJAEmACZ/BYnHP8ipX0qFTQZrHsJIwZZoUCsmQtAAwODgVFAMKLWQ7I5cvsO00cAQE5wftMLIAjVBnkETeU+O+oigJ8RlifuCkE+CwFzpdFzseaFGXrRh6HJOCmgfEx+Z2h3CuMAFj8h6/k7IyK4iiGQVKHMwjPP1cJoZiBwUy/MJnpVbJmlQkCDyhDCO+yP9vS9Fu3XyBslO9hUUGBDk2gZL/oaICMxMGpxQYFaIcJioEgmVAi9FpMIuV+rNLMx/HBK0onBhh5u2qfPT5UVclaifq/nNqswWECEYCJJRAxJljgPuaGB+eJi+w633y0s4lgRmmZHWNAwPMIx8SxMcE+LCE9jMY/D9ERIkgvp8Ag5AYF8UFBwHT1onvs1ygigO4C7L0W7deK14w+APZAABhK0liGIIDIVKhhMSJak8OaglTE+OUuQ2AJkowbHTTgFXYBI5Kae2FBhsgAdNewCZ5ntwinLHgYPPZ1BnFDJ0yeQVAOAJmicg+3dPQSDHtN2RjWCS0Cm4PSMB0ZAHitCWB558EIg3KQZjqmTxYsPbwuyNFu3XSQ+CIfDqCVsfEVSU1QQY8BwpLOA/m6I2misFMQUntM1uwCIm7giYJk9lC0eB50LxSRmbmbynZmCCiwFwjzmQa6D2gjkcxMPd/NAhMiBA982UFTwAALA1QIRMA8op0TEXSDymXwuuCAawWDLgiCiJCOQewnngReY9gXZGi3brkcgy6QE9cblTaaFNGg9RMeCwY5kmCBEdI9SfeTrmqpWA44zLIalByhMkyqV3ezNETSJKjAJnXEAx0IzvGw5oBjUGzgnSNIg2NENOJgRgz6qR+RIBVN7mwc4rLR0DSGBuxdS0wPkqHhqsTT3BHFbsiYJNBE0yxzEWpMAs0tk1nkwvdBcLHeg/iEckeFHBVI4Kd67L0W7dcibc6OJukAzTO2ag6Fdyzmywkfiiwk0IPlfzB7WMupARsr8UTqAvzErM7T1ycNRxD2KCmwxKZVKD2FcmCdrprxzWNLwc5+h3UjdOC/hvKGSToLoUcAhxwNx219KhRBgugfpDbeCYBPoLKgpDF+DNNMcwW7prIbUn9zQZBFYgXsmp2GJPygLB8u4OSPjeV8pgcKtofSPhHDVOkfF2Xot261+bdQOPlCA/wGCOAGHk9YQuMkCCzRyRgFTqAqqcsrAaOZh7Qt4M6sSin4Lfg8/CAIjkHBuCoOa4JiWCxkCno6oJbNwNx219KhRPFmD2AifAMQmIBggojhiZ702B2XwTVSLVhuomGHYVgnROuO/BCXTNcwGzpkbv0wHm7K0W7dbgmcOr87/4G0/jgBzxUHAkYhoFg+wMTjkM1BAmPVz9LDCckSEQxvtyjbMB1iBoigwCeE5X6YbXQmY4bPB1jzQIAD4nzBEAEFwcb+47K+lQqA6DgaHA9U5k5piEKAwB1pzd+G3bD8kz3dBK4rmfwevAisiFirkNgQF2EEUGXk3ZWi3brCBCkEadD8mG3FJAmmh02S9pvO5LpQGIGAAErHuRwNLwUb0JGyLYS4IUPAsmmjCPuFgzmhr8KKFyEu+VJx43f0kQiAhMOU17EFODkODeY3ocqAvpUNhHAJgLCnujmiUSlSKkiIFmUN4HlXIYAIhd6zKh2c0MiIS+5wsHIh01a8yPG/ARALyoNBiMA+IXgvQchgFFW7VnVlQIAEkqYaj2QhAAAMALsvRbt1hRGIBqYKAACw4T5p0g6gsha4qEAMi+kVGwNQSZ3IY+EIOOWPcgIhGFuG2OzSxHQJwHmX8FU1ic7WreXuzNDdhsDBPzAMT1GqEIBGAT2jvaJRuLuABYA2NQnADGppn4pzz4SioBgADi+HQoYhQOBfXgtXaaPtPOcdn1MysMhQfME3EQMEcHxsAQDlAg4ov5xiNGvYgo7I08sxkmSB+rr6Jjijg83QJydAQJ+Q0fClN3Hh1IoSldalAzSExBDSooNYBgB3tg3GkCALBEwLl9wURALKDXA7IIHRmd0JcZkCCPqoomFPbuvDqXQC8EPs6qDuFgP6nLqsayjiVSa3u2t26xj/2n8XAZUYI8QIBEFv2AiZ9MgD1VKXyLbyDXXYMfyYIc0+RwG6mswM5PO5Ethno1XdunM5qlb1npFVnuMbG+L/jDr2RghgCaEEguDEGovTqFBcIkypdLHunNiY+AspNuc9lOJzhMfMAGwipzJJn5lWB7T1HG7GgYkUPpqipIFix6o90ZJGJgvdZAUOUv2RsPT6DHZCsG/RMzsg1QYBgLo2+FgB9jIp4Lku2Ybos6swI19idMAJyOjojmFuFBLCKg5pjsh+HYJgL8vRbtlhM4PY3MnTsvj5NRUAOfMSoXmK7oE5A4/sCAAEA12fBH5ZuyFywSJY5kOZ0Q9hgACQUFhIAJMk5+gSg6Jltb9PZ04nD/ABgBgBGaJjE/IgnRzcIhwxUQKOYrs9nCl6LdusGN9iuOxcEg1GC7mFSbnEFfxfRF+FkAYoagj764lAEgL5IAcovNAJNSg3QWqMIACeW5wBNTpA4AkNBaygc4zMA82PUcZzMTwoA/bIS4GYtjZMg7nBBIBJER/wDBl6Ldus1xfHn/AA1GU0tRwTFglCPkPNk+AIJlnQEaliqCgGAtc7ZhRmiI9YKyKehEkyYaockAbKS+csBTnEoiMJicNKCwFMSY0D6KdaAYbpSACZJZF2BUB7pIMw6oQvo+l4xCoQX5HVDJ7kRxezTATKVGedukhzDMwCOGNn+V6R+VsTMhMBzzW/Bl6LdusOGDnYl+OBlbBcpvzWRanDkhMPYCAQgARJKhikMOB5ayRmjOQ5Nspo8PgifDlEsHMlGO/fPNffh1EpL9ErDMn8uFNSKBoWNpIAkwCCgFAyGlU8FUKA5SvdwHPBQQ8IB3KWw8BgEyWQRwgFeb4CzHOb3iAQxEESDo872CdtU5j2L8rRbt1gJqRc1PVB8i3DJYOUQ1d7hRHCA0OcnZobY34R8loy+de10kZCNgeLMB25g8nnZTIhdkEEJX3UQDTpaSya+xBijy2sAcgARJOCMQ4PLny4RjRygXDN4s9QCIaN44L5vvfJkZK0W7daIrQMotiQk4jkZZTqnztzAgBMTnJbdZeUysNfCE0BLOS7o6AVn97YQKIh8kxp/UfpGJEkki5JmbpgXhDxUIf4VhIBE7RFPF6RJh7jE2PmItDQfqCCF8bkViYonLnzB7TNO5sB3T3SPEBrW086Yc7XTxAxOCBnBiqDBgRQYG4S0XZouh/UgIaNbHEGFyxDzY5gNAHKwnaO5BncdDI8zplb3SHTAdqJXpei3brgRgEZqYLUF41kUGTdEpEPlXbXLmbsmlBQ5f1FPYHLR8uyxJxMycbwqQLesgJBshveUVBmi7xQcgNBYBRzsQzYYBBDiwwyi5KJG887h+fpTIZoGKBTFqbGtLMRGhTzDmx8MiiQIlNnJQOQmUxZFuwwtax2J8yE5Oa0BqU1A6FpSESYIdBbQ7dmyuGOGIB5FCGEiHu9tbt1zE6jEoAZEG0gJkBboAooz/ADeCfXrR7okQAa+tOg0ncTRnNjXPAiR+1qDNC6iMCAC78mZDNRUwz/17XOR1OJTAQw4rHEyHUbhLAlDxmH6lcA642/VJiYcBoLwHCAAxKOs4oC/ZSrTEstGWgZUKdiwuREMlnV2rsvRbt1wTTLpyMUkciNCUMDr1/ToxmSdS6ynDAgJKYAcnkghiJm5AeWkkAwYSRC0wEyoFluTL926shQVQqGGwTYQ4pwcCHY3BGJEG44RgHKayxAxOQY6rTDSh0khCXAMivmUuy9Fu3XZ+H8SR4x8Fh0eyqnKDmZOlBYUYPIanAIxcHQKAWzLCJMAAnUh2WSbCFuNmhPHm4GTiHQpDqA4LYwDQMaXBgHKku5pX96igCESSVwyK+ZS7L0W7ddEmCYg4hRWHFVVw3GnE4NTJGgejD7Q2ECQGCDRRyRgEaUiRB2eSiSQhIckck1e4QD+l9bFscc4SZ+oRCBcA3BvbfI0uBMZw8hGtp4kRojTybHlW05/GP3K4yDHDIPu35lEJC0yK+ZS7L0W7deBbRogFUmhEfaM75IE0eH2WqggPpf6lCYQkBgESwcyRjUD1CnDEXEIeVwAkAEkyAxTh0nGD9KVBMIBv8DdBujUuEbFOCRBQn0p5hJBuTqIUEn0eSId1QsIdMGYnZ7KS8sCxRDAMwXe4CYQVwtixFIwHlcMivmUuy9Fu3cCPu3EkNKh2RoI5gax7AaQudlMmsf0jmLeV5PpHgxP6hsIgLMjBCsChHdT8OW3NVAACFxlZg5BA3iJn4opcEyg/whIwI4r6RdRrEw4VWc6gUPdmwZIzG3LJ/XuBwi+M0xALUkPKInLgPdNANK4ZFfMpdl6Ldu4Dib5ESOOgo4A7GIXlu0Cwe/LVAiA00OpTkKy+gsxYm7aDC6ZjbHVQTpR8dDAAAYMAghBAQDf4xrrRhhyIYkAwOOYOPAHKmpmKqctT8sPipOVREEgEMSERkbz5ZsB50QCIkFecrTIr5lLsrRbt3BLkMo5O8qhORJRqt0RsXch6qanqgohnZMAkuipmiE9kfakOcVLgstDCb/zZdPBED/FqiRgRjC2TjYdEyynVAjwIpmcg4ljdHABznqtBU3I/73rVd4c2miLH9JZTqhJMRoDrmZw9plNnn29AitygROLRjLCZSgUSwLXThVtC4snDKOoZQqWJsAgaIYwTFgB/qAQDqF/Hra8HBADADqouPpQlgDQcSGJd9pfmHismJqYmJllv/ViDPiNLSeBAEOA/4cqnlAWWd1rP61XzOKlK3//aAAwDAQACAAMAAAAQ8888888888888888888888888888888888+3TH88888yuf40fX8888888MA884UMw088wAsU888IR8889d4oNNcfTH8888I8c8McQc88s0gU8ssw88d0+8//AOB/PPPCH9ffPONPPPPPFPPPOBAPPPPHPPKXPvBbzCf+9FT3V+tPLFPPPOKEABDHPFPPPPJPPGcPBX//AP8A/wD/APpko8HvzzDzzyjhzzzzzyTzzzwDzznj5n7rHP73GM76TyZTywzjyDRBTTTBSjTjzCzzy3z5/wDhZpo7+f8A+KOCEvPDPHHPPHIJHPPPLNHPPPKfflfzvXfP/wDog56lJzzzx0zzzz3fHzzzjfXzzzyUz5f/AP8A/wD/ACm7Nd8jOQ888e/Ch3f/AL5LV/8A/wDP888o0+oJb9MOWmd/6B/g8888SU8f/l4738QGb/8A9vPDcPvICB7nPP8A/wBne4cU88888o//AHPDPPKzDb/1PPNXPPHF/wD/AP8A/pbXO0FPPPPPPKf/AN3zPW9+uQ/9TzzkX7zyZfzzSO174pDzzzzzzzxP++1+8D+/f/8AU889E+888K7ts10DAo888888888t8z/3H9333pzY88ry88888MIMEiw88888888888888c8888c88888GB788888888888888888888888888888888888++A+8//8QAIhEBAAICAQQDAQEAAAAAAAAAAQAREDEhIEFRsTBAcVCR/9oACAEDAQE/EP4aTQi5xEL7dQEX2yRAPeDf2nO+0Nl0IIjN8RHcAlGKgNtRonP2fbNn5nsfnPtwFaIfSvzEdEL2All19j2zd+ZWi8EVtTyqaCkXh9c3OCNRe22OYyLP2Htm78xbjfwIU2w/TijRFVtlBbL36/tm78wcJrHnQMqVNAZrKQzn/KB0anZIqtst5nYIeb+v7ZsxvgicxTYgGhANIkj4xTi/c1jB+ue2bMb4FNS3mW9AXwTvMM1FVtljc7U7dHCC4ZBUQRLM3Lh0XL6vbN2D36gXUV3ACdgwFvE4MOkJiEe1S4t9Axl9A10e2bvzAcMLwfmHnAEsh8Yp3gF1AEuQ230k0Z38wuAvCoGElSonS9s3fnQvzPxF9ot6EgBL+CBfBKDrfguXLi4M+2bvzNCoiPPSF8E8sUhcKeX4zCy48YDBMGfbNnQEJgNh54fDFXcC9Srl+JMDLwRMDLi4M+2bOmhlBENEYosH2h5wAfGkTxkLgRImKuJUphkTwX8bQQiH3L+IQHSqKOVn/8QAJxEBAAIBAwMEAgMBAAAAAAAAAQARMRAhQSBxsTBAUWGRoVCBwfH/2gAIAQIBAT8Q/gmfgCgneA07dTc6ohcrgcMz8bQq3cRoe6Ba5jCdOgq3dgC12mwC5yNRyHQUxFG6O17nwzH3hjRTczaWuOsEVrjpDcxdvEsWiZpt7jxTH3IY0tVHbKZcO6gmZbzPviUR2hVbYu9xGo4JbGHuPDMcJvHoArROWGdsaaE4UlMZM+38Mx9yGI9TEzVu28wqtTfEVxoOAxnwwCBRKXLP86F9r26/WYO8MQVbR7iUeID4gnYJhY5l+IbR0EzcQ/MANiPxmIKa9t4Zh7wxFejZEufQgGBADGoC1ol/linH5gECghVss3Fx2noDbNyBvWpXTUqV0+GY+8MS3qIi1U2HfKl+odPwwK0CfnQjBwdOfTBcCAHQnOh0J0eGYu8MShIHmDlh44SGBag292O7qF0dROx/6Jksspfn0lnFL0NtFrQMXQdFwb0dfDMfeGNKi3S//EPnA8qzeSDbbUq4rf6giABaMnWPQrRUDpeGYoaLW6tAC1ogG2+Xw3h/y6fXfQHpDQ0WtA30vDMfeGNbUYh/ylzLx8SK3zDKXDaKgtwvxvSHRLlabcw0S5UCul4Zh7wx0IrJm04Xm+WP9wBVgTOwZsI/b9QZeihFvQdLqDL6D/SC6oejfu7sxU5oLDY/hGJt0wrYYaf/xAArEAEAAQMDAwQDAAMBAQEAAAABEQAhMUFRYXGBkRAgobEwwfDR4fFAYFD/2gAIAQEAAT8Q/wDhZhZLRSDasfjNWJ+Ur+ErIm7HxQczXEbf/FAghumn+9HRHaPSWu5G3+1KDZyOjs/kSihLhe7TgO33wB81ED9hfAH7pi28l+q3Yf5vQjrpvkajROo/7GnbbYo8iPDQ1cwEPcp/8GRORAd2rFFUVntT5qf6sE+Q/FWrn4HxKkgEQXN1H2rRmMQ+R9ylAEqsB3qKZcuJ5bDulLtE5HzBQPhgvzVgSGPKGU/FQmd5BHqrO5+B1itpPoLuxUOEcCvMsfiviGB8FVgxxY7sxTcMk4Xz+dBgSR06Jb8BmQzdHqktsInR+FCKA1ml5s7DwFW6xLxUmp3zuX0oDsq3VTu3fYoSsB1ihWBXhKPlMKgII5Ofi9BSmbyXUwnDJWKPZeyfw3qDIJIPOZOST8ohBKGAOWhztQmXiQ3a2sy4pUpYhcIWO3W9Ega1gcOB8UEIjj6FlSIDGo/7UbN1/VPDvRDr3ZyFhwiU8BLhC9ngveQ4M0QKk+BwjqXz6trGVB1DifK7S2qeOaXv2D3w2DFLHLEG44HdKjqEwiOsUPNTRTMQfNUoFp3Hj8KOWFnTtJITizS1t9g/FhwJLyOaDciaFhEyeyTDT4D/ADsZWxWYQAw6JkHN6Ge74q15bnloo33BtzZuoQWNl48VnAuzp8Q+ShIRkPHjd2Zau3jMRCmzWctyE3KEGVmyus+W0yvtOfeTrgfPrEGn2UY94RiapHk25Hy2psVVuoXPPTY4oAAAAiA0449Vshw23qwHVCt0QzfDA8tKp27cOxLd6OKhunmVFBC/2BQAsAcFRQkdATQf8/bU5RpAw1GCPSiIKQISNVbrz+NyQCq2gpt0U7Matp4Mgl2rZ5joGo2CcoDF21K3yE6dnrbcFYybAXYt6qSAhCR60HccwBH+glzQMllEpbpuujgdyFLsw2ZpkXRlLjouvpLzFWwCZ1aynTKVr9NUtANAEAWC3UULkU26Lk7WSbulAqGDekC3sx8SIH6xxIpq5AgI0TR1u4kuPpkC5ZYcnJosIuPo086MAJV6BWZsZcMLG/HBgWLy0B4gaUdL4cAy6C6CpETwljiBx7CWtCAbI2oABSn6beSM3YMkalgvzYDCPcmRpXiFYgyxtkkMlmse+GtfxN6Me4CylFzsfTg12UwTJn8rfFowFoC3qF75ALG42E6sHe1ENeEQcWT4nDWHnwC7H4sT4ZgwGq/7bC1LUy4mJszfhDLtapKQM8/72P7t+FYp7cLahjKeFGKR4YFhZdgCriDtQGMgqGxNjgNOsr7kW0UJExJhN/QwApCADKtHBDfIsJDSQ9wbQQZEPIOUbDblOz3mJNMNnlaDJ/hSjeU2LKCHiBjRYp7EISl59VIU8Dr6FyEharrxaZih/wDkiUcvUxyNR02T8u6t1brd94sjFFIutyErtrZgAYrWbmoyibKVu2iSlZ+jJ8/gh/E3ox7X3ymPM+b0F8QAAY/tXX1hAhJJdjlxgtOQQMghVAd0/Bp+O7ROXOyDbdwU4ggRV5kN1gl14ACmJ+douQ9Gb6LGY/AZR4tAStTQiZk6J7E71OlaCzLfIR05fiROSyhBZnb5Uapw9Il6AL2oghR6CD6/AwgCjy3l2kUhwARsmpxHyqY8p2CV8FOjgqtx8ABUQJxGD/hZ/CG8tALJYOAPQSnew4IG0Xz/AAI/ib0Y9mTfM/e6rh3dqswGCXXfLu3mczf1EJDmJk0aS02JeGCGo78quqt38SglYOath9pZTlMuDuldg1x2DQ4Pu/olbAAZ5g6oQ80RcI9436s670qOVJBAkzCWO7OlT9u6LLK/zqI6+5KZjG4P4VQIJbBjVsfKFH+hvkCXuy/iQaxLlY+6GwIGdGDHZ95eQZOfLW7vIb4pREAgSEYFlCDEE036MRov9gqd1+df0KlIMlBbI7M1AWXZAgPH4QAWqXkMdIfNIbPUAeJ7jr70a1/E3ox6w8Dz2n+NAWn6tr1H4NAwFi3og5vVq8nmfPTXet9N8gJsGMRsQUI4T0PW3q/wMcOq1GHLAGTl2jkmr+RibgNWjNuKAEAAaRiu9bE8ks8jmCZXYlq0leQaar/iLVCTWDOkDVW1By0FkHDwHzK0vAZGSrBNixGy7EHtQAsAegr+qkFs90f8n4VnMMgALiGyUqAZB0kwJw050xPz/iKVbQF3n9LJ1mfuGm+bx+4j5p9LfbxlPwUCyZayu6HxSWfhH08bd2rlS5qu12fmhjGJP1dbtSWTbC6GPkpYBhBJfll3tTk34JVLS72Vqpp0A/r8RIZE8D9tRfP0EkfL74a1/E3owejYpJ8SZiz81jp7YSA3m4N96PAVkH3QDpQoAefyKPihY7f9b+1JjmaJZtVwf29stTUTouvgoEgTF7yP6oYR4VHpNjtHseBaOeoOBxO0u8StuyY101fjQgprcGYAXVo3NqWCmyW6YNDlfQU1aBLAuzyY3G1LBs0ezXc7gAqAk26UB+lLnDJuP4gJCIuScg0tL5zhKINhu3ZI80TmV+EQtxejHJWy32mpu0RA+WNub1dx1yLOwFNNlH3osvmg0DJ+uL9KtnuI+oPZqHN0gUFJs50P0L+IZGA5vJfxQXFueCUvH4EP6m9GD0QbvjU/UJ7KAALjVm/7dZ/8CBLEY/udIqaeZU8HPzPFmhkzBYA/yuXVmmHKMANVaZKvK2ScXwXV0C+tRp/OJDdcBL26VqpIspdeVvQ+wHZgsZYbugqG+UBsiWfY6CXtHd5ihBEC0wkiOzM2ohRWJScKjmSefxASAESIm0I+B3qXMzmVw6XTtPWjGSZsvMoqxPYi0dj8KFFCDMSfgKkbKMQ2L35kxvSgTgMQSD2CdvwmvSAOLInQu9IjJAxbHdYX292Cta/ub0Y9DcK3srHgf+BM2TC52OpwTzFLpkQT+I6svTFFa/2y6cBlWIL1l8Bt3pvPCQ5fRAVABZpNGMJdr32sLsQb1c6zjK4ANVYA5oDggRtEA7gAc5pku4jKm7e4OpQyeyUGRCw4450NpVIEdqCHGaCo8nahTGkDI/hCkF3O5idgD2pvOHa6GNiSR2hodq5smLO4DwT8aLU5GF5B0ijQjio0DHYI/IEN+r8EgOOAYDlbBu1Z3RMbMDsAB2mmYOONhE+s9BPdjata/ib0YpyQBV2KwfF4lZ8Py3hh1T4ppR8xWdwbuxHJUFNvIi7M91OKCTtjANj0HumwInhWjyug0sDquE6Mu11lekB6QtupTOx2r7ttH0MzoTLDbxh1XY9JBCBssEszwA71N7DkTohccdF4TUXrSEsoEO46ohG4l96tyEIn8mw56MGpsXDuJZ90bhmYKJJ4RE0bN/UguIQJmBAGwAbAHRqM0l9mN4tLCN0QeKHKIbC0weYcJj3LEQUCyq2CpF/aEsI5EpQV4cGAyWlAiDJhLiJkTkKsDJDYsuu0OzDpV7GQGPwE82ZvRZ7ebC/h0dPc5ExQJqrgqcEAkQOg3Og3dAsET14y8EcSdqC+oCADAGNvfDWv4m9GKVuB4pfLV2ECxwFC1K61AvZ5qximImJnUnJzhKEwr1KkcQ96epSeQ6sUiBPa40CbCAeWCl9niI8j9VEO9SjpKVOkUuGvZBvcaiMV0qw+pRmPYu9ihWFZxHUt2y8mK1RVUiypcrlebrr6ysbNt9j+BnMCAaRcAKNwuauuVsgg7ulAGgYpSIKxYNX+t1qBYkh1+obdqGziPaKVXX1DbtLtpkhqcGAbY9t6WGpU66W4NzKtfch5rZFTfFp5akSmw/oSkKpsxo4IpYZfKz8KDCSRcQ2/3gO1InIMyhu6cihzSNo/iEBkrsu+CCWiwlQJA5E2qZEBDu4Z4M7ExaqhAwmZGLF1JPNS4zaKTkrI5WT0Kg5tKlwkahh90n3UfViGXwM0Q8HIHqH0pYSoXJBhkyTeWYcBVi/tmE3/AOCN3QS/AGu7pyrldX1x60igDWcA3w4YyYQZgv8A2NJL3qIzQOA45Y1ldcvP9Mc6NvmYrkgC/wB0nHdT4maEuJkA8h9KTMyJJRqmZtZXwFCmYYEZDhwJh0F6A3fLd+dct+xAR7sXqfzN6MU2p/EV8ewsLRPeCoGXgEsRU9cNz9lLzI4D9VcjyFXnpv8AjoCBeP6VAeh6f98coLdyU/WJFhuh/DamjVPellHwexRkO+C6Jss00LuggINAapymqctQkGpW+47DK/tK31D0fogCMRY9IgVEhZh+YT0VJcAVOAKM8IA5Lj0uNGPbaPGe3Z1qTzuUfVITq8IpF4eIrzddr1KWvb9gU5F//wCxppRZhifk+FWDwzpbDc8A0YWrwym6XXKvtlbTBVt7AvJHJrDJb+EcPVT1wiBnspuvj0pmEnSV+1Gd1goDfU7JoeCuBZOaxxZuNRaTGDsBY9qw6BwXaccAlKh2WGCdST07KTwJcGO6QndKuOXmkINLBMeIL/FAQAktjmF8C0UiA3lwljg/wqHJRRdgPwwa/kb0YoGnmdn9mqdi62PHrf1UC6RSZ1ACfEzU1oKNHwHzQaZxJ+IPlrXSBJupl3WoEQJYACfZ0qfWsin/ADaFxq2rDYAXV1Vbq5lvS2q3Yt7D9uCjTBoXVJsF++elYABLripD1kmU/RA6zTxxpzNl3YKakoEPYIU7f+NIlaCRo4uGFX9VGjHQfp+IEAR0aV5WV+q+IY+n44b1rX8zcoxSOkBPsRAIMiQo+Z5zRAAbC/bWjD+CSrEUzJ+N+ikyFp9QqSL1u/lpBRLsF+vvYIAZlirNmKf2nHlxlMwowAaAYpZl8zgGwauDwJN5H+gpzlb7B6QDgN63xy0sb+hSjQGy4OiHY0JaZPo/htMLwQ8E0XBTEpHlIodvyuCdT/8AEh/U3oxTmDI91/8ACBbdaAOuIfLoOKKlFWw3Go8r7R6JwJKAjuf7HTcsmCkQaWMG2975fRSYu7XV4CV4vTA3zct/BsAUS4VmuVr0CV6c1Lfcg3U2l3Zv1qzmf7A/X4K5qyI6/ACvTmsUvksNh9Ebsstfuk4Nes7ShiDXWov08J32faEXpGAcrSoIYVw/jenIAxK/E0zWh6qTgAav2AU4QZrngk81iJ4bdz3LgXJx5akwmxAH8c0hNHPxctTrH+GKCbaf1mi0ctEPCNA3K03TiEvT8cNa/ib0YpwAoOl+lbRh/NhCE+LeDBzYNWlH8hN6HbRa7nSkYtJAvu7vLeixpIABu0SHj4RaF4OaVoaYF1XM/RYix6qBYAC9KNMhT3Xc01NiDeiZQBKtI5uRMIfaLOwUgQsbsB8QVYUw37T+CRKz9BJF8H2LesutgIDuvmj0ckAVWwU8srgtwM+bHWo25c8AMDxNcHtnreV26jB1mpdWLE2wc/J0tQzfT0JGahIS8ZF+tavEUDAG6vgBjembA57Ok4+D3IAOxJmh3OCMWw/QxxpS9Y1zPOfYd4/DjWv4m9GKHGeiAiiEgxd7j4n8YIgBdVxQKWtzh5xPaWkScOMeqv4B5rfs5A8lyvL6XssTCU3TA5YoK08olX15duOGtbBj2AguQZmXi+U2GauNMlzcNfoO5QAABiOhSkmn2qQ73+KiNtPwTyVRebL6Sp3PUAqgBLUpbhkIgB5gTszWGgnKpQAyq4peAX1I11cTXLoGwGCPwIJDCRczP+qdeqeut7bd229I1jdXTQ6JJ3pTlK8jZRp1kxv+FZkMNOORwmEtRPwuqQydNR1E/Dj+JvRj0OtJNigMFsDzLSYDWR4+YoXCzsKA4Hkaml3TzSGS6oVDh2lKvSo2FdQHmAHelkx0ah3fsoECVxk7yfisLFE8OB2CgAAAPRJChPhwXjlgoAeyghuuOyXkpMnKdUdVbrzd9rdwy0ckviXTGcBTiDALAVOpqlHKxeGX/ZS7R5xPogAMBYt6SfaY7/SS1GbbVh72RcJkDQxXuD4Ythyw9c0aLVpczrSIT15BhbkOkAJrQQegoJBagJnuRLxG/tRBZxC69Au1KL2v8VTYCyb4G549hCU6BPCMjO+GoPgU5hhA6MSOz6W6jYcBH6ocvoBu9pniL0aMtFx9gfipyFEwx4nNDpMsoHpgvf2hVHCtolfXJ3NvwQ1r+JvRj0a4kkJp9WeX+qWlL0/1Scz9FXDuaAsVt/hoWOKD6eyKP6A/NCu/gj6/qGnQXwrByvpSLpV5RKt1yvN33QVHFZU5tXdMdagKECAKFpZBlGA1W1KSuDlLt8UsSvEBSZABN1j6l6UY4hnYtPfPWocPxvojIodgS0zisv04AgOCPYhWIxTBxJaXg5sUCsIUFdVLvoiiuB/cA8lDHjl0p29dRi/XICgASq4pRNoY1B/gsc0ScBMRh8P259YDG6umAnZJXWnJVJIUhg8u4QTvVm4xBSjePUJ/wME5GjPR+w2HYtsDAWT2LSXk4Qf0lXBzB4fbj9T+JvRj0aMMJAopiYdKLkjhmpqaLkjloHH7b7aWIbJXiVFgriUveNR3lZjsP3UoF9JZ1T3CU8VnJmeW/vdZSIntUrHskWA/jkmN6Dx4mAaBQ9R7SpwGq0KjZcRIDldFxdMY6+ij7ybqjwGB3moLpUH5Uut1bE/A+y0ixLBr/uo/mMtw+MdD2GWTXDoORh7U+RvMo3wneXn3MCNKkBUX7m/iVJpy/wC+Ff8AUf5r/r/80co9GAN0vUKvHqRbCqnLK+8fdDf0/ib0YPWK3FITuHOmzFOwEmgjxh0jegRD6HHzSmX63/mp/O2Xmrsk+8FAAAfEfil64Ql0BdaAl+XTYY2Xg1miIQBAFIMC1w7Bav1lgo6o9kyTzrGBbcc+mcsvCQs9H22pisBN5DXrdXmiAoQflUDqXb2cR0unUS/z+JCIAXWpA9oVwzi4XR1puhlcHOxsKAAAHSPwfAr+rs98Na/ib0YPVpbexDUSz5Nm+rH5cPDWZ+z6STlKkXBAJ3j6B3n0mFPJF5YcXyOg0piyMnaIPLOd/UEBUAEqugaukUoAxrGYmC6m+i1DyXqMdPytMOZDoj9h7EmEkcyH9UjUpO4kn3+GZ9A6hDqbOU2g1ZDQD+09UIgBqpYogciETyENfxv6oUWwSAaqkebVm459fgV/V2e+E1/E3ox7GBAPkTIlETXCksmTbZ7Oi/igNNht8K+XhogqvBK5174NyiWGA4AaAUmRQgG6tooMy83J3P8ABw5qe/xGpJXXnPqoErY7/wDWacuIx4Oro00OcRgpUQcUEH5s4a/iMlEIWSf9ewoMSpb7Zz9I59g4Vwb9lfRu9GhXgRekHI+ZKnWSJQX6DpPb1kNk7gGDtA9iLLuRk2QxLMt7gRqQFsen9nfXxPX4Ff1dn4If1N6Me1OwiIOyU81MpPAde6QzvQyCIiWhmTfk90QoBYL5duvFS12LKBuTd2HqVqQdIL0PkY4odEwGDgLUCIA1aXMK2XePsS1LEEE7HUk5VdT2MhYBKrpq1CNPhK/TywYzerqV4y1HCNqIf+BkdC5ibccjJG0ewgWnADUTX/lKnJBKJykJ5E6UmaG4p+GKVICCFegt3lY4pW8iq6AzpGAsEW9AhJrJpc2d+dKdjuDGHk+XUqYRlhIYdYSzcYphjAPZEfHsiiDjdJhjZIZ9XSPw2xbtzE7HX2fAr+rs/BD+JvRj2xNSMmf74qZjFC4Zu+LJ2rWWSzqaJySPptOw2boJpcZroPj/AApoUDLl8JfpXWx4+bido9MUIjDu0OFYT5OToM0wi+/+93ScFAAABABEHshyg5JxTq8EtR4bc0LxscZdWoyQg4qDYMUIFv8AwzkZhIwhcyLPnStcrHWaO5qaRfH4iUZbCxNzzAasFG/FFoCClbMrVl17xB7Dz1EhcswjYcMmtc+ep4IfVGXJDfCOTCHRKAQAL4Iv/nn2fAr+rs/BD+pvRj3N6Mb0Tl5ps65B80QrcZd0bHiKjG0TPj0Vwy6EvDeiF8tc/B+6IUDaDB1Yl2a2tFDfA7A9ihdiOagwxnA8uH20VYHMoOFyPA0J8kAAHTaoS21EIKP/AMYOdSFY0DU5LnxV84xcD2Q50ww2/Axdr3QTqaHy4JxTBsoELMAaDQ759ImQQLA0S3mBOTaaaFSFIaGjNo9yTArpgm62BecR1okLzM7rd/X4Ff1dn4Mf3N6MHvKIVMWKkNuFPqkc2RP8aY8U6NbV+twvepMBOVqVAx1fVE8EvWU8eWCKWIR2z4M04JG6/uiQjFnkebHilgBAsEWDpRET8KwIeKEaUAY/8rRonIh3HI8lLWbMsx0N/IvNBD8hHalMdiihJqLDzX/PUwEk6Fl0ipWjwd8TG1avYrK6vGmCeSiGTkN13XK8t/YskmQBcbHA+dkpRC0mu6qx7J1pKRTIjOzX/PUVYMLa9CgIu1BbODc8HSlwIiB2j6C3XNI6SeiNkduSv+vr/r6Sgx76KhgsICyb+0jWBH36wRr8DNGPwxOaFMFFKx4qUsUibPFDLB8Vko4niitJ8USJFaAo4WPFAaFCf+qNA7SFKosn8aUL4CPr8MGLsJqWTyP9FQhe0H5BNZmLeXqyjy7o/vP5GkNLaU7VcFcFGxQDagmlQH/6elGdEdHh1rin4q26OVjtvUKjzf8Aw4UgYaCxWoA+C9ABi6P8V/xn+KcFehOgAAAaR6//2Q==;rounded=0;shadow=0;glass=0;sketch=0;strokeColor=#FF8000;strokeWidth=2;fillColor=none;fontSize=16;fontColor=#4277BB;" vertex="1" parent="ujxpVkBqCpxsbF_aywxT-58">
          <mxGeometry x="316.2" y="153" width="101.61" height="43.5" as="geometry" />
        </mxCell>
        <mxCell id="ujxpVkBqCpxsbF_aywxT-185" value="" style="aspect=fixed;perimeter=ellipsePerimeter;html=1;align=center;shadow=0;dashed=0;spacingTop=3;image;image=img/lib/active_directory/internet_globe.svg;fontSize=14;fontColor=#3333FF;fillColor=#335D80;" vertex="1" parent="ujxpVkBqCpxsbF_aywxT-58">
          <mxGeometry x="47" y="24" width="62" height="62" as="geometry" />
        </mxCell>
        <mxCell id="ujxpVkBqCpxsbF_aywxT-186" value="Virtual Private Cloud (ca-central-1)" style="outlineConnect=0;dashed=0;verticalLabelPosition=middle;verticalAlign=middle;align=left;html=1;shape=mxgraph.aws3.virtual_private_cloud;fillColor=#E02533;gradientColor=none;fontSize=14;fontColor=#4277BB;labelPosition=right;" vertex="1" parent="ujxpVkBqCpxsbF_aywxT-58">
          <mxGeometry x="189" y="57.000000000000014" width="40.5" height="27.51" as="geometry" />
        </mxCell>
        <mxCell id="ujxpVkBqCpxsbF_aywxT-89" value="Application" style="rounded=0;html=1;shadow=0;labelBackgroundColor=none;strokeColor=none;strokeWidth=2;fillColor=#EBC01A;gradientColor=none;fontSize=12;fontColor=#4277BB;align=left;labelPosition=right;verticalLabelPosition=middle;verticalAlign=middle;spacingLeft=5;" vertex="1" parent="ujxpVkBqCpxsbF_aywxT-58">
          <mxGeometry x="14.00333333333333" y="524.9166666666666" width="25.333333333333332" height="8.38888888888889" as="geometry" />
        </mxCell>
        <mxCell id="ujxpVkBqCpxsbF_aywxT-90" value="Cloud systems" style="rounded=0;html=1;shadow=0;labelBackgroundColor=none;strokeColor=none;strokeWidth=2;fillColor=#0DB39D;gradientColor=none;fontSize=12;fontColor=#4277BB;align=left;labelPosition=right;verticalLabelPosition=middle;verticalAlign=middle;spacingLeft=5;" vertex="1" parent="ujxpVkBqCpxsbF_aywxT-58">
          <mxGeometry x="14.00333333333333" y="540.0166666666667" width="25.333333333333332" height="8.38888888888889" as="geometry" />
        </mxCell>
        <mxCell id="ujxpVkBqCpxsbF_aywxT-91" value="Data store" style="rounded=0;html=1;shadow=0;labelBackgroundColor=none;strokeColor=none;strokeWidth=2;fillColor=#335D81;gradientColor=none;fontSize=12;fontColor=#4277BB;align=left;labelPosition=right;verticalLabelPosition=middle;verticalAlign=middle;spacingLeft=5;" vertex="1" parent="ujxpVkBqCpxsbF_aywxT-58">
          <mxGeometry x="14.00333333333333" y="555.9555555555555" width="25.333333333333332" height="8.38888888888889" as="geometry" />
        </mxCell>
        <mxCell id="ujxpVkBqCpxsbF_aywxT-92" value="Security" style="rounded=0;html=1;shadow=0;labelBackgroundColor=none;strokeColor=none;strokeWidth=2;fillColor=#E52134;gradientColor=none;fontSize=12;fontColor=#4277BB;align=left;labelPosition=right;verticalLabelPosition=middle;verticalAlign=middle;spacingLeft=5;" vertex="1" parent="ujxpVkBqCpxsbF_aywxT-58">
          <mxGeometry x="14.00333333333333" y="571.8944444444444" width="25.333333333333332" height="8.38888888888889" as="geometry" />
        </mxCell>
        <mxCell id="ujxpVkBqCpxsbF_aywxT-93" value="LEGEND" style="text;html=1;align=left;verticalAlign=middle;fontColor=#4277BB;shadow=0;dashed=0;strokeColor=none;fillColor=none;labelBackgroundColor=none;fontStyle=1;fontSize=14;spacingLeft=0;" vertex="1" parent="ujxpVkBqCpxsbF_aywxT-58">
          <mxGeometry x="14.00333333333333" y="503.10555555555555" width="124.13333333333333" height="16.77777777777778" as="geometry" />
        </mxCell>
        <mxCell id="ujxpVkBqCpxsbF_aywxT-194" value="" style="line;strokeWidth=3;direction=south;html=1;shadow=0;labelBackgroundColor=none;fillColor=none;gradientColor=none;fontSize=12;fontColor=#4277BB;align=right;strokeColor=#4277BB;" vertex="1" parent="ujxpVkBqCpxsbF_aywxT-58">
          <mxGeometry x="150" y="1" width="10" height="593" as="geometry" />
        </mxCell>
        <mxCell id="ujxpVkBqCpxsbF_aywxT-197" value="&lt;font color=&quot;#4277bb&quot; style=&quot;font-size: 14px;&quot;&gt;&lt;span style=&quot;font-size: 14px;&quot;&gt;Availability Zone A&lt;/span&gt;&lt;/font&gt;" style="sketch=0;outlineConnect=0;fontColor=#232F3E;gradientColor=none;fillColor=#335D80;strokeColor=none;dashed=0;verticalLabelPosition=middle;verticalAlign=middle;align=left;html=1;fontSize=14;fontStyle=0;aspect=fixed;pointerEvents=1;shape=mxgraph.aws4.backup_restore;labelPosition=right;" vertex="1" parent="ujxpVkBqCpxsbF_aywxT-58">
          <mxGeometry x="211.25" y="85" width="35.75" height="35.75" as="geometry" />
        </mxCell>
        <mxCell id="ujxpVkBqCpxsbF_aywxT-198" value="" style="sketch=0;outlineConnect=0;fontColor=#232F3E;gradientColor=none;fillColor=#335D80;strokeColor=none;dashed=0;verticalLabelPosition=middle;verticalAlign=middle;align=left;html=1;fontSize=14;fontStyle=0;aspect=fixed;pointerEvents=1;shape=mxgraph.aws4.backup_restore;labelPosition=right;" vertex="1" parent="ujxpVkBqCpxsbF_aywxT-58">
          <mxGeometry x="1069" y="78" width="35.75" height="35.75" as="geometry" />
        </mxCell>
        <mxCell id="ujxpVkBqCpxsbF_aywxT-201" value="" style="rounded=0;whiteSpace=wrap;html=1;labelBackgroundColor=#FFFFFF;strokeWidth=2;fillColor=none;fontSize=14;fontColor=#4277BB;strokeColor=#4277bb;dashed=1;" vertex="1" parent="ujxpVkBqCpxsbF_aywxT-58">
          <mxGeometry x="190" y="100" width="860" height="460" as="geometry" />
        </mxCell>
        <mxCell id="ujxpVkBqCpxsbF_aywxT-203" value="" style="rounded=0;whiteSpace=wrap;html=1;labelBackgroundColor=#FFFFFF;strokeWidth=2;fillColor=none;fontSize=14;fontColor=#4277BB;strokeColor=#4277bb;dashed=1;" vertex="1" parent="ujxpVkBqCpxsbF_aywxT-58">
          <mxGeometry x="160" y="30" width="970" height="558.75" as="geometry" />
        </mxCell>
        <mxCell id="Q92iPGlsA-gXPBGff51a-0" value="" style="shape=image;html=1;verticalAlign=top;verticalLabelPosition=bottom;labelBackgroundColor=#ffffff;imageAspect=0;aspect=fixed;image=https://cdn3.iconfinder.com/data/icons/user-avatars-1/512/users-14-128.png" parent="SS1UO9asb9NOfLbzNGHr-1" vertex="1">
          <mxGeometry x="273" y="25" width="128" height="128" as="geometry" />
        </mxCell>
        <mxCell id="Q92iPGlsA-gXPBGff51a-1" value="" style="shape=image;html=1;verticalAlign=top;verticalLabelPosition=bottom;labelBackgroundColor=#ffffff;imageAspect=0;aspect=fixed;image=https://cdn3.iconfinder.com/data/icons/user-avatars-1/512/users-10-3-128.png" parent="SS1UO9asb9NOfLbzNGHr-1" vertex="1">
          <mxGeometry x="175" y="25" width="128" height="128" as="geometry" />
        </mxCell>
        <mxCell id="Q92iPGlsA-gXPBGff51a-2" value="" style="shape=image;html=1;verticalAlign=top;verticalLabelPosition=bottom;labelBackgroundColor=#ffffff;imageAspect=0;aspect=fixed;image=https://cdn3.iconfinder.com/data/icons/user-avatars-1/512/users-5-128.png" parent="SS1UO9asb9NOfLbzNGHr-1" vertex="1">
          <mxGeometry x="372" y="25" width="128" height="128" as="geometry" />
        </mxCell>
        <mxCell id="Q92iPGlsA-gXPBGff51a-3" value="" style="shape=image;html=1;verticalAlign=top;verticalLabelPosition=bottom;labelBackgroundColor=#ffffff;imageAspect=0;aspect=fixed;image=https://cdn3.iconfinder.com/data/icons/user-avatars-1/512/users-3-128.png" parent="SS1UO9asb9NOfLbzNGHr-1" vertex="1">
          <mxGeometry x="569" y="25" width="128" height="128" as="geometry" />
        </mxCell>
        <mxCell id="Q92iPGlsA-gXPBGff51a-4" value="" style="shape=image;html=1;verticalAlign=top;verticalLabelPosition=bottom;labelBackgroundColor=#ffffff;imageAspect=0;aspect=fixed;image=https://cdn3.iconfinder.com/data/icons/user-avatars-1/512/users-7-128.png" parent="SS1UO9asb9NOfLbzNGHr-1" vertex="1">
          <mxGeometry x="470" y="25" width="128" height="128" as="geometry" />
        </mxCell>
        <mxCell id="Q92iPGlsA-gXPBGff51a-5" value="" style="shape=image;verticalLabelPosition=bottom;verticalAlign=top;imageAspect=0;aspect=fixed;image=data:image/jpeg,/9j/4AAQSkZJRgABAQAAAQABAAD/2wBDAAYEBQYFBAYGBQYHBwYIChAKCgkJChQODwwQFxQYGBcUFhYaHSUfGhsjHBYWICwgIyYnKSopGR8tMC0oMCUoKSj/2wBDAQcHBwoIChMKChMoGhYaKCgoKCgoKCgoKCgoKCgoKCgoKCgoKCgoKCgoKCgoKCgoKCgoKCgoKCgoKCgoKCgoKCj/wgARCAEGAmQDASIAAhEBAxEB/8QAHAABAAIDAQEBAAAAAAAAAAAAAAUHAgQGAwEI/8QAGQEBAAMBAQAAAAAAAAAAAAAAAAECBAMF/9oADAMBAAIQAxAAAAG1AAAAAAAAAAAAAAAAAAAAAAAAAAAAAAAAAAPn1DW8JDR4dPmcSxaegygZnbm9Ro5gAAD4fXOcn1rY0NW7RXtdTlXSOo9OT+S7uVrFSbmzpjo+E2Ii5TPYEgAAADEyw4ngy2I2s5Y7Xfr6MLw9aF7ksFhmCFJmCrTQO+8ob3J7pasgy/Vb2IegB4Hvo8BxxZujzMkS8zxUEXlnRtknUgAAiNSUi/J3trVz52nx7XnAADk7RL1/GY7+Y9u0ePr2fW5rcDN9QzWit/2c5CJ+a+yREyXppI3VYd1TjKi+gAAD5Vc1wQsOcmTz9AY5DmK1vHxOe6diQ9PyHRn2wPYAIeYFKStkUuXs5LrTzqDoOVPaz5DYAGGY4avL85Ax7GhbrN8AGlFSsV5e1ljln7dAPb8wJDl4pp8T9+elyEl1t9sn22PO6BysAAAfOXikxW3h5cPKdLFWdbpsOekdHpyArIDDOCKn7ivbzNwAAADmulrw4q8qvtYAAHmenA9Fy5A2/QtulUWZVt9GYAAAKc6DZ5YuMAGlFSsV5e1ljln7dAPb8wJR9WTEJw8gK5sbGrv521XOqOXjTYriNmevXOV809c4eNUsbnuC86ZpOMOeNt+tkX0M/esNfqaG/EdRurYT5983qA5PrOXKsvugr7MgAAISbp4s/hN/TM7HpHIuWGqCUO0hUucfFW7NlNy1qjg9zsOXK3vCir1AAAAOWrmwuALsABpRUrFeXtZY5Z+3QD3PMQ8xX1eHNDP4oAAAAAA3ltHo+i6Hrv8ADPxrjTu9YL49Hn7WxAdFivAdLT9gHRjPdo7woC3uDwLgY5AACnrhp46P28exKWtao7ZJz3AAABHSI/P95VRPFjgAAGscBo8/ZB1wANKKlYry9rLHLP26Ae35mNQ2ZVXTJmx+8fP+vn3jzPn2Kj4fXzaW1k1NW68VJ2FJX1ct02el02bsFy/Na529Q2UdHo2fnt7VzPV7SXY8danSJX75+mDoBFU3fMCcbZlI5F4OAmjpXORh21N5RB3ffc30hXnIXhWR3knQ/blgoffNlHwJ1VYROZaMrrbJz1SX5xht9RQnXFmoKUNlHwJ1VUaA9Lk094AA0oqVivL2sscs/boB7fmc7W/f8B6HINFfly1FceO+prybHMX7bw8vX5qTbcc5C9I72HrzQ7x1HM4tNAvCR9bLz3+afrWGe3hgehzmbPg/nn9JbZjZLhYADw43uRUUbd4pDfuAV/2e6AAOY4q3BQmv+gvAoeYuXM4XtvQAAQ3CWoKH1P0F4FDS1z+hwXb+wAAA0oqVivL2sscs/boB7fmcnwNi116PIO9fu1qImRzi0JLx0xlh9WAgAbETr9PO9Nkv56OpXPOfTUN/NPQtrcZkKx7eq+NrWlI6RzX+iAADX0q0plsmUpyQrxtZr7HXeCRgZoWOR1bjvQ61BTRmEgDzPRC6B1LjyOwcxKEmEgAAaUVKxXl7WWOWft0A9vzIarrmpvbzxGugAAAA3YnSz7HrM9uN7PZictpTjeeitNcsTVQdLWZjrPvIed05vQ15ffSxN7T3fM6gAAcBzHY8dn8YfK5+/wCogp3R7j584K3SV5TxTAAD18h2XU1J1Key09yLhzEDimAAHz6JDuK3zLYR8hFgANKKlYry9zLHLP16Ae35iubGdIpbG6dfTSn1tecqp+Wx7FQ7dt+tZrOY7RymHl/Hn6T08bwUJ3r0vN/GugWgTNZ+2Zj5ef01Ku2NTZR1vK2PSZba8fbD0AAA8eG79XlVfSdgjkPO+rleSzwmoBI96Vv423rJq1KxSHyU64298i1fQtkQkxyW/YvvCuNC1sSpnQc/MATdgVNa8TkEgaUVKxXl7WWOWft0A9vzAl5enP1t3rdSl/vSLm8KewRa0fXa7soaGdY+/DpAIAPvaUmKsbPS8/p6Vh8j9dR7aKzHcxc95nX3yOcgAAAAIWa5s4gTV8+5ljyJFgNeLnAAPh9+cnzCLD0+A+y7twhHXciAHy0avs1O8IkDSipWK8vayxyz9ugHueYAr+wPO8U18nIP0uQWgAAAbMTrSXVdXmtFTHnxWa09XHh83UH3rV1up1mLpsSGHtluAAAAAA57odBFZvn2YAtjPl+oiQSQXMosNFSo5Dr6rPATA7I5H0tMmq/CzqwR9As2srNTvCJA0oqVivL2sscs/boB7fmBIDxryyfO8U187fjPQ5eY6CWnOc8bJWJKZ7cn1DmuE9RzvFRuiu9omqo2Dw6Lbn8V8ZVs5rvoAAAAAAAVrHWPXU1xB96XmR3UfyozwD5NQ2wWRWFrVymOCFg196FruC1Yma5H59mAFm1lZqd4RIGlFSsV5e1ljln7dAPb8wJAAYRsr8ObnmtMSGrAc50jpYKJ8dVfLy2fvauqkdyswft1MpwnnOgkN3NfU3/T0pPz6AAAAAAAACFmiKp8rT5eXKN/QQY/T63Jw56wdvYiUJNipFichMRT7gZPsoR2dg8aRLcGnZte2IncESBpRUpF+VtZY58O0+Pc8wAAABjkPHx3BGeUt8If5MCI9ZP6aPts/Tzz+gAAAAAAAAAAABjkPHPMAAAAfPL2GOQAAAACP5219U8j0G34zOjj6D08YAAAAAAAAAAAAAAAAAAAAAAAAAAAAAAAAAD4Q1/I5X+5ktn6dKBL/8QAMBAAAgICAAQFAgYCAwEAAAAAAwQBAgAFEBEgMAYSExQyITMVIjE0QEE1YBYkUCP/2gAIAQEAAQUC/wBGtea57mM9zGQxTInn/pRg+bjS80mlovXtlMMWE26tMtvMndnz8bYyu7LlN4PBbNQmVtFo/gWtFYNtkhZO/VyPECuC3CRMpepI6Z+mMbZME38Qj5/8iwXiBe2LtAZjrYaAvBd+tXP+RZXxFXAblMs1tFo62a8r8FrcidlrbADLGzZNn99HOOHKcHewZW3RKYo8Bruz9I2G9rTGDlZsOliTTVu3y2pejDAMHAkuGyG9yJi0cNjsBI0dfO7IAkNNNI7bPwBvD6l0OR+W+t3dh5S0XrxMWgR7DdkNk/IOscNkaFzL6R2uHAZfFWTKW1m3G3PU18OFPn1uuiUq4+ZroFS5bA0x74PSrxlNerTKipXjMROWAK2W16lprHKva/TNxtJbkIrmIlohUilKjrwn647plmMcWKmXQrHWUzavVRXKSxCavS+pUQ6Cpxe14HIfSIibS7KVCcL2ilNnsLvE1yBXiJa9dOONqxaux0dLRaJrbR7OWepr7fCvy6tntIDlpm1uAh3LdPTVjB0qOvZaYosL8QY9yi4NunY8SO+Woh3MTWojRD1XHS/CfpGya9454eQ9S3U2uNsDIbLn8POeutniVznZBWzjQBUALq3uu9wMZLDuixVtXoa+3wr8unb7HlPFFMjl1VhKj7TjQ1RtMEaLmkVsQ3XaYrVk0sseGVPy9nxAf0dcEcmMKlRD6/E635dKb0dna0UqcsnP4dV9FLsbhb2r/hY35uhv7fCvy6Nw96NeXFFWzZwCoAXae2tBYUly3xJWzZgjqEe3dlUSbNWgdO8J6Wrn9FBQBXs+Kr/n8OD8+y6r2rSDbVIWbPcLsq+byzuS+XURHmmlYpXseKRcw6Unp7Tob+3wr8uLrFVQWtN7cOWau6gwdi960hjbgHjTp2eKq92SqL0WCyai4mDWObVsys10+Jv8bT6k7B9moAyjgG88UfvvCv7jCFGLCbhGmF8QijC75q2F2DZc+chQbLgtE5fB+HaZ4ij09SjHN7s+JI56tCeT/Q19vhX5cduz67XSJgwsHt2a5Xd2yN2PPxoOTux5bd2wu0avhL2JPFNQjZFVxrCvaKV2TkuFzRLeqfp8R182r58piecde8/y3hT4+Ka/9tRsyklebLnykSDZcFoWrYPw8PBaZIeDEMfR4jr5tWtb02ez4mty12tjzbHoa+3wr8uG0Y9up/BQ1lz4IdRUvatK7N+W7YIdilVBVcG2f9sSs844uh9wn/WjY9xr+vef5bwp8fFIua68Uk49QjTBiGKOxsA+uj/SJoZU7Hig3mP4cF6my6Gvt8K/Lhvi+drvrKmZlHWjXnDmoAexeu5bhpEvSowaoAnLY5tIf1UujerSs/pnfZNx9Y6t5/lvCnxdBDKt6TW2kd92p2tuv7bYeGm/JfrYLQAWC2Ofw2tIk+hr7fCvyyfpBieqburosMYtqBUytYrGP7EauMsEZJw1CPub5um/XNnh6tucdGxTo6sUdxE0+29rFLVvTp3NottPCnxzxGhysowRQ6DgnQ9N7RSux3BSta5yjy+blH3q0TNbafZw5XpvatK7jYy6TVJS81Eco6Gvt8K/LNnf00Iznxn6Zzjo55Rc18FrGr4HSxgElw8WGQrw7tim6NenZwo6VHTcu+iPggv7dKvTtNcN4bSxlCKtnVlfxDlN2jbLbpGMN4gDEObRprBDuW+lQsiHJjnG21FgSEtxXT3/ANBbNMmQcU4R1YeM71YcPPndnXa8r11w0XFw3Wq9fJ81Lo70ooDtUi5DAZwjiw8a3qw4deO7KCRnSKLDUD0tfb4V+Wb63LX8Z+uVpEDlcNslFbPYK5Ci8ZWla9LOwXXxncFJlpm1uKKl3CrhouLYOVTFe1r3zVL+4cn6QOecdJRUNRrw/S0m0zo8sm1XITatgtQ6TF/D31WWCqPof04GpZ07gcvS1M/JleWA1zZ8T0FazSsUr0P68DsM6NoWFEQWfkyvLAINnxPQREjpUdOpr7fCvyzxFP8A1eII8x+ojIR4XcK0w27JOHcYP1IJXcuANADdaooJg12DcNOt7dTdm9FBSf8A4fw5jnnoiyta17chFOVpWvaa+3wr8s8RftuirJ65DrUZ+IN5LzWWaYtkzM5yjsa7V2NlK1pV1sagmTkZLw06vuWc3TPrtJ/Y7BSjFWNipM1mLR/4DX2+Fflm/jmh/AAEh7oaqi85sNhRSDFucnAdLEuktVVfZte1V/oH0rHXsGoUAYtzExJu6lwkqUfRaYrBdktTLbiufjFsjcRg9otfK2reOm9q0gmzWpltxTPxicjcTlNwOcC8uXstfb4V+Wbevn13epW17J6e1sCEYaTPKNhtuWTMzPHSpenXNm17poFfOcWR1+ILTLXHw/bmpw/THNpFZKUhp6REuGyOzi88GGBr0Y2hiZe1rz1LOGXxJujVepr7fCvywlfPSazS3bXVOxi2kwABgrjj4VcdeK306dD175vXPJXNXXzOC7HiAM9GnBIU8meUbF73M9nUu8pzYL+5W7NLWHdNmrIelr7fCvy4bdQlXJ+mc46OcZzygDEwWqbvgtHGA1yoeLToFYb25i5/fRrUZcJSsUrsW4UBe03vmnHyGPsEpUlG9QSkwi1Mo6nyW4bpnq9IvL++hIsmWzbA9FrI+s1TZtkoNRhB3F06c3pt9LX2+FflxmInJXDOSmtOfh6mQirGQqCMrSlegpaCqxuF6Yxs2TdeuRs5cQ6ioyei4mj3ZNlazay1IpWndvaKUveSX4pK2aIusIFcMAZqvp2VviyR2MV1wQcdgv7hZTVfQYqCjhaItG1TgE8a28lonnHQ19vhX5cZvWJ58eeWMKuX2ClMvuVowm8nDbJsuT+aevW62zWUpFKsGouJ5q7ZuGrDzsGuR3dxfyo9CAfQV4nFUwlNcIHVM8ou6tTJ2q0Z+LL5+LL43sFzrcZ/RWeavQ19vhX5cdul7oEZ5rZ5rcOUduPrOu1PBtkaonGiNk4CpJSLCilaR3t7+140jmTtObXlJSkNPZR/Z9DX2+Ffl0bpL07d1RMzWIoCUjH9gJSDmIwTigv6VRVyO9vI5p8efKaWi1exumZ59FaXtnolyRFiOhH9n0Nfb4V+XRasWrs0ZUt2lwFYsppqUyIiIvaKVe3HPP1niir5ZDTKx33h+sp0aZnzD47Rv0BK7AwMVeCxxPf1D8dSmP0eDv7ToR/Z9DX2+Ffl0kpF67HXWXnrXSYYxXTCplKVpXHNqEGNNGanj/aanlwQ8pX+C+D27XGJmJX216x+LL4xtpmL2te3BbYnDixqsB/vjqSwRLhuG48vQj+z6Gvt8K/LqmMe1UWy9LDvkfmkOuaLgdJOLorr8L3rSrG5DTGnTtdIRXLKqsDwY8pXI/g7Bb3QLRNbdlcNmDUrFKbAXoucR3sO9dqxEGfZLHSj+z6Gvt8K/LrmMZWGeo0Ex4Oo6xhTiFhtyvTDbli+FJctugYrkwKMYMWDHla/xH0as4Udw36wiuciKlVR5s1Pcj/SekdLFIenpn4o/s+hr7fCvy7HLJrk05Y0pJsvqyRNk2Iz25s9Eue3NlUzTlNfOCSHXKiyosrTIj+MUVDVY1GETYHk/TOcZ+uDWOTF9TacCEYacXERs4bXsim0TXOcZH5sBr2CymoNWra55a9qxntWM9qxicTVXoa+HCnz7XLJrk0yRZIs9HPRz0cgWQPIpkV/lzETnpUyKxHZmOeelTIiI7jFvNfgtXnfu8s5Z5c8ueXOX/rGNy4jHN8pWK1/0ew/Nnt6Z7euQGkdH//EACkRAAECBgICAQQDAQAAAAAAAAEAAgMEEBESMSAhMkBREzBBUBQiQlL/2gAIAQMBAT8B/Rsw/wBL6DVEhFnIuWSyKuVkVl7cE3ani7bcLouoGrEcCQO1DmGxDYezL+Kdqr3hguUHh/YoBbi94YLlR5gxOhpSkHI5n2ZfxR1Wai5usgSNKHNPbtNnWHaEzD+V/Ih/KM3DCfOk+Kc4u7KgS5idnS6aLBDfsS/ijqkw/Bl/sNaXdBQZS3b10KNCB9eX8UdUmYZidBGA8fhYkbqGk6TZeI78Jkl/0UyG1mkXUaE4pvry/inao6jVg34WDfhaV1kr0ARNqDoevL+Kdqjq35BqJo0Jx4x5gQuvymTvf9h6Mv4o6o7mGq1kXV0tnjMg/UN6QQQwX9CX8UdUIusFisVisVpZK9QLIm6bxiQWxNpkqxpvxt9kVl/FHVSbLJZrJX4AXQFkTQD15fxR1Ui/MNWkTejR6VuUv4p2uBF0Ralliugi6ob7Mv4p2uZKuaWWKt7Uv4p2v0rWlxsE1uIso0SwsP0uZGkXu+a//8QALBEAAQMCBAUEAgMBAAAAAAAAAQACAwQREBIgMSEyQEFRExQiUlBhMDNCcf/aAAgBAgEBPwH8HKJALtKFVIoZxJ/3UyBzkKUd16DPC9FnhGnYnUxGyII36qpbleo3ZXA6GtLjYKOAMRNk+pA5U6d5WYnEk90HA9TV86bvjsocmX4IkAXKllL9JNk510xt+Kym2bqKr+xN3xeboEjiEah7hYr1As4WYLOEZPGDW3UUWcqSwZx6ir503fBxsP4Ws8qOIvTWhosFPJnOUKWLKwHp6vnTd8BAZRcJ1NI3siCN9AaUI/Ka3wo6bu5AW4BTy5fiFTx/6KqHWbbp6vnTd8KbkwquysrKybC89k2l+yaxrdsJpsvAbqKIyG5wkPqPsEemq+dN3wpuTAgFZG+Fkb40E2UlR2aooS/iUBbgFPJlFlTM/wBI76HPshJ56Gr503fClPAjUTbdPqWjZF75Co6e3F2D3hguVxlej8GaXb4N26Cr503fCOQsN17r9L3Q8L3Q8I1XgJ1Q8qz3ptN9k1gbtg5waLlSSGQqGLIFUusLaS26DANN9N9dXzpu+McIkF7r2v7Xtf2hTNQhYO2h8gZunvdIVDDk4ndE24qR+d1+gtoONXzpu+Mb8humuDhcaSbKSp+qDXSlRxBmE8t/iOivicavnTd9EchYUyQP2wdK0d06q+q+cqZTfZAAcAiQN1LPfg3pjjV86bvpBsi4ndMaw7lNjiCzNCMrB3Tqn6pzy7fpzjVf2Ju4/CvkDBcp7s7rlU0JJzH8L6bXcSEIWeMf/8QAQhAAAgADAgoGCAMHBQEAAAAAAQIAAxEhMQQQEiAiIzJBUXETMFJhgZEzQmJykqHB0UCCsRQkNENgouFQY3ODspP/2gAIAQEABj8C/obYMbJjZMW2RZ/RVVvx2eUVHWayYq8zGiWf3RGhIPi0WSpfnHo5XzjSkp4GNOS45Wx6XJPBrIqpBHd+BqxAHfBBnqTwW2LFnH8sWpOH5Y9NkH2xSKoysO451sUablNwS2NDB5h5mkfwp+ONbLmy/nGomq/I9Rr5qJzMatJkzwpFmCn440sGccmrFOk6M+2KRVSCO7qK8cdNx6oqlZrezd5xtdGvBPvFTaeObfFx8o2W8orLZpZ7rIpPpNHEWGNW+l2Tf1tsFMDAdu2dn/MZU+Yznvu8oyZSM54KKxZg7D3iBH8OfBhGulTE94RlSXZDxWAmHD/sX6wCDUHHp6Uw7KC8xrWonYW6MmRLZz7Ii0S05tG3J8zFTJyx7BrFRVXHgRGRhuku6YLxzgMpBU3EZjTJrBUW8mMjBKypfa9Y/aKm1jv3mNGQQOL2RfJHjFgltyaNfKeXzEVwdynduPhAlzNXP4bjyz/HGvPqNM1fcgvMUc5KdhczJlIznuEa1lljzMabTH8aRoyE8RWNFFHhjtEaUtD4RUyErxFkAW+PWGVJNMG/9/4gS5Kl3O4QGws9K/ZGzGSihRwAx2wWljoZnFLvKOjninAi5uUa9jpWrL7GLK2pjWIvGGmTWyna8mBNw2oG6X94CS1CqNwzNatH3Ot4jImWqdlx60CTNP7ux+A/bGWY0UWkx2ZC7K/UxRNGWu0/CNUlX7bWnMowBB3GC+BaD9jcftBVgVZTaN4joMIOuAsPbGd44xzzzKwehm723LBZiWY3k48iUpZuAjKws5R7AujJRQo4AdUXmGzhxjpsr8m6kVWxxevDqRgso2tbM5cIWXKWrtYBGStsw7T8c8ZahqGoqLjiqYeb6lyco/apo0R6Mce/PaVNFh+UPJm7S/OOhmGsyVZzGIYIhs2pn0ELKWwXs3AQsuUoVFuGeZ8ldel/tCFmSjR1tBhJy+teOBzfHGOecZGDm313G7uGZRNFBtPGRKWnE7z1eVMNu5d5jLmeA4YuntCJ8+oJNwtiZOPrmsNhT3nRTl1TgbUzQEJKW9zkwqIKKooOol4St40G+kSTufQPjBY3C2Jk5r3NY6UjTm6Xhu6l1XYfTWJ0g++Prm+OMc83opR1rb+yMzIWxRtNwhZcsUUdWUwejvx3CC8xspjvxZC2KNpuEKiCiiFEunStdXhAmJ4jgc6eReRk+cWRKlD1Vp1WDJzaMo/y0Jz6uwUd8Wz1J4LbEyRLlzDlDaNlIDdk1icy+stB4wF4mkBRcLOpkTey2T5xI9qq5vjjHPMaY3gOJgs5qxtOYJcmapbfWwk9TV2AHfGrrNbuuijtROyt2PIl+J4QEl+J4w0yYaAQ02ZtN8oF5R9Fhnf9iwnvD9epaXNm0dbxkmG/Z3ysm+yJX/H9Ywg+yMWsmKnM0j02V7orGqkzG52Rq1ly/nGnhEzkLI3ufONDB5lO+z9Y0+jl8zWNdPdu5RSFQXBlEYMP9xf16pu5l/WMG/5FzfHGOeYQDoS7Bnaua691Y0sh/CkaUjyaLZMyPRzYskvGjIHi0WMqe6IrMZmPecyiWKL24RkSx48YLMaKLzFlkpdkfXEZzbMu7nnMeywPzgHgawCOowjw/SMK5rEhuKEfOHMggFrDUVjWYRMpwBp+kdpvMxoYPMpxNkaxpcv5xrMIduQpHocs+2axq0VeQpmN7LA/OJL8HU/PqgO04jBh/uDN8cY542I220V/BZc+qS+G8wEljJUboLMQFG8xkJUSB/diWXL2mhZaXD5xKRL65T8oqLsydK7SkRb4xLqdNNBuowjw/SMK5rEmaPUah8YlidXoy1GpHoA3vWxq0VOQp1M6VvZTSO+JU0esvUypI9QZRjK3S1JzfHGOeNZY/lj5/gNUtnaN0B31k3jwxF5rZKxTZki5fvj6eaNY1w4CGmTNlYeY+0xgKdqXo5rNTVzdJfrFXOpex+7v6jCPD9IwrmsTJJ9YUhkmCjCwiAGOul2N9+rmLTRbTWGwV7m0k+o6h5sw0RRUw819pzXlBmtfONfDN8cY54qw8w+sa9doJRe01kVnHpTw3RRRQYskac3sj6xlzjXgNwx9LM9Cp+I4uiQ6uWfM4p7+pYPHNMtrDercDDS5q5LrYRAk4TUyPVbs/wCIDIQym4jOnlSCKi7lGFc1xHDJQs/mD6wJ0q8buIjLlG31l3rnFnICi8mFOCtkypZ0fb590dIlhuZeBxaPpktT7QCKqynxBjo5tFwgf3d4zizkKovJjIl2YOps9rvgIa9Etrn6RQXZvjjHPFPbfk5ttkX5uhJmH8sbAQe0Y100nuWyNCUteJtOOs5wvdGTIrKTj6xzKXSxtN9ICIMlRcI6GU2ubh6oxonrUqeed2Zw2XjIwhMk7juMaiYVHZvHlH7zIPNDFsxl95THpq8lMamVMc99kUZ+jTspAlyULt2Vh+kasyZaQLhioboM3BVLSd6C9f8AECZJco3FYC4ZL/On2jRwiX4mkWTU+KNPCJQ/NGpypzd1g841zUTsLdGjoyvWmfaFlylyUXGZ+DDXesvb/wAxQ5SOp5EQEwpelXtDaiyeqng9kWTZZ/NGnPlD80ams5u6weca5tDci3RSUKJ60w3CBKkigHzzvHGOeI97AZlIVaXCkWypZ/LHoJfwx6CX5RZJl/DGioGbRnq3ZW0xSQvRDibTBZiWY7zmZKWKNpuECXKFFEVNrnZXjBdzVjaTiWuwmk0W3Z5SagdTuMVwWYZfstaIsliYPYaLcGnfDFmDTvhj0OQPbaP3mdUcJf3jIkIFH65pdNTN4rv5iNFBNXin2ikxGX3hSPVjRFeUaEhgOL6IjKwt+k9hbBAVAFUXAZusFHFzrfFZWTOXyMUmynT3lj1Y0flGrkPTi2iIysMmZXsJd5wElqFUXAZ/jjXnilj28yUOLj9c/WTUXmY0S0z3RGplKve1saya1OAsGdZoyhe/2gS5S5KiMt/AcYMyadI/LGMoUmPpND0Ok+iIl+6P0/CWx6NPhjRAHLq7ZaeUaKgch1XjjHPFK9/6ZujPmj80fxEyP4hvlH8Q8aU+b8UWsx5nqQ+EgpK7O9oCoAFG4RlPf6q7zBmTTbuHDHlN6OXaeeIquxL0Rz3xL90dTWY4Ud8U6dYqpqP9B8cY54q8HH4HIkqWb9IEyaekm/IYskac7cv3gzJrZTHGqIKs1ghZa+J4mCw2zYvPEo7uoy72NiiMua2U2KqWpvSFdDotbm1Y0EbeWfZtjRkseZj0A+KNKQfBo0iU94RVSCOIzquwUd8beV7orGjKc+MWSP7otkf3Rpy3X5xRZgrwNnU+OMc8U6m4V6/JRSzcBGVhRyR2FvjIlKFXgIqboMvBDU75n2gliSTeTmdPNGsbZHZGIkHVrYsS14sOplruC1zGXstmFMGox7Zuis1y/POypTFT3RkYTRW3NuOPKmtTh3xSTq18zFZjFj35+g1V7LXRo2OL1z/HGOeJlNxFIKG9TTrNTLJHG4RXCZn5U+8ZMlAo7sVHNX7K3xRtGX2BmidNGpW4do4v2eWdJtruGIHsivUy54uGicwZW05ysVTdGRLqJP8A66oYPNu9Q/TEyjbFq8+qDoaMLjAcWG4jgc7xxjnjd5ctmR7agb40gRzi/NsjQkzD+WLUVPeMa6ceSiKrLBbi1uPWvpdkXwRJ1S8d8d+bbUSVvPHugKooosAjKvc2KOMFnNWNpOIv2j1JRxVTeIrg+mvA3xToGgTMJIJFyC7H+zpzf7Z3opnwmKG/NR3BDG/FlDZmW+OKgtPdFkl/GyPQ/MRrUZOYzQvqzLM7xxjnmWiLZUv4YtkS/hj+Hl+Ufw8v4Y9DL+GNFQOQzKzHVR3mNVWae66Nro14J98+2oki9uPKAktQqi4CDMmmgHzgzJl+4cMQVbzZAUXCzrmY3AVhna9jXMoLEG00UloB378VJqBo4yjccVQuSnaaKkdI/FsbKNsWrzgNhXwCKS0VeQx0IqI6SUNWbxwOYrj1TWK5vjjHPMoWAObpTEHjFs9PC2NEO/IRqpHxGPSZA9gUirEk8T1AmTNGT82gKgoouEGZNNFEZbWKNleGPpTusHXv7Wjmou+888xpbXGAzayZxOdbGlOSL2P5Y/mfDH8z4YmSxl1Is0c2UfZGb44xzzMpRrk2e/uiyNpvONpvPFd1YAtJ3CBMwscpf3xZc02bhxjKmWAbK8MYRbzCqtw69PfzEHtDqymDUPtm6KzXZufVSfcGb44xzzThEoaB2xwPHrtUuh2zdGjpTN7nFk7U3cgjpJzZTfpmaW2b/wAADwcZgPC2AwuNvU/s6Hvf7ZuijnkI9FM+GKmU9PdzZPuDN8cY55pBFQYykqZJu9nu6vJkoW/SA2EnpD2RdFAKCCzkBRvMFME/+h+kVNpO85gd9rcOH4Gam+lmb0DbS7PeMzIT0rXd3fFCekTg33igOS/ZbHMfi2Ys+YMpmuruxzvcObJ9wZvjjHPOKsAVN4MF5ILSfmvUaEsgdprBFcIPSNwuEZKKFXgMRWXrZnAXCNc9R2RdmUEBpg0uHD8Gy+obVzAQaEbxFJ65ftC+P5nwxTB0p7TQWc5TG8nHRj0icDf5wJiAgHjB55iAHSSwjGcHlm31z9M2T7gzfHGOfUF8Gorb03GMmYpVuBxUW090WSskcXsjXzfBIrLljK7RtOLKdgo4mCJIM1vIRrGovZW7N0BZxiy1uP4TJG2LVMFWFGF46oS0vN54CAq2AWRMG4nKGZlS2KtxEW9GfCKF8kezZnSfcGb44xz6nJmrX6RpSa97GsatVA7sWsmIvMxq8qYe4Rq1SWPMxWa7Oe/N0Fr3xWYcru3R3fhsoaM0b+POMiauS3UZEoVb9IoLXO02IFPSrd3wQRQjdnKiCrGJiD1TTMk+4M3xxjn1dlkemnLyaKqytzj0deUeifyj0T+UeiaNkDmY038o2anvt/FZM1Qw74rg7/laNKS3hbFtRzi+LLY0JL+VIrhD0HZWMmUoUZldmZ2hGxljikaQI5iL40QTyjYyBxaNG1jex3xOIkzCCx3R6CZ5R6CZ5R6CZ5RJDChCizNHPGvP/UbRGwvlFgA6m2NhfKLB1lOGOu4f0TRL8dl3GKD+iLWaN8b4urmf/8QAKxAAAQIDBgcBAQEBAQAAAAAAAQARITFRECBBYXGhMIGRscHR8OHxQGBQ/9oACAEBAAE/If8AhTko8TDK1EMxaghA5OP+KA6F32vaXGpDHEg7i8oI8xXNbqUOPNNIqT1I2EDMWM0Iw8/II2gAbBPes7FE/wDhJQFiTIyCdXtQ/bQ8ojsA+UfAiMCb5LPrT14gBMARkCLCfshmDaj9kI4sZflQohVgOyfmTROk+A7skidJp8B6sHdEXkM/ynsIyEHjIsAO9khc9yJOOBBgh32/EX4JgIpiA4SCj+APOPLsiH5gRN3KJiZE0JHH6lZt0ND4BlQPg7IA2chhy4pAhJgIkolIkZbT4FlVIoNJAs/ovsX1MGaBuSanypDtSgdZLMOa39TfJBQ5PIQywDggwNo5F5LMhmjXLYQ615phnTDjamSGvz77IgEC/FEAOYe0miLmRmIjuEyHMsLoMdUGmrkOCLgCCPIBHjVh7Hw6IndEmaPkKHvWwP3siBHnPpBtve6ONnEI85LONJ9ZBTg39bxfGE2iY2TgT2X0JDNOfQYda3MlIvdUxGnh/JAw4ZtbI3M18hbEQBNZIA6rcEEoaBBEBcOiiyTQcnPDJAEmACZ/BYnHP8ipX0qFTQZrHsJIwZZoUCsmQtAAwODgVFAMKLWQ7I5cvsO00cAQE5wftMLIAjVBnkETeU+O+oigJ8RlifuCkE+CwFzpdFzseaFGXrRh6HJOCmgfEx+Z2h3CuMAFj8h6/k7IyK4iiGQVKHMwjPP1cJoZiBwUy/MJnpVbJmlQkCDyhDCO+yP9vS9Fu3XyBslO9hUUGBDk2gZL/oaICMxMGpxQYFaIcJioEgmVAi9FpMIuV+rNLMx/HBK0onBhh5u2qfPT5UVclaifq/nNqswWECEYCJJRAxJljgPuaGB+eJi+w633y0s4lgRmmZHWNAwPMIx8SxMcE+LCE9jMY/D9ERIkgvp8Ag5AYF8UFBwHT1onvs1ygigO4C7L0W7deK14w+APZAABhK0liGIIDIVKhhMSJak8OaglTE+OUuQ2AJkowbHTTgFXYBI5Kae2FBhsgAdNewCZ5ntwinLHgYPPZ1BnFDJ0yeQVAOAJmicg+3dPQSDHtN2RjWCS0Cm4PSMB0ZAHitCWB558EIg3KQZjqmTxYsPbwuyNFu3XSQ+CIfDqCVsfEVSU1QQY8BwpLOA/m6I2misFMQUntM1uwCIm7giYJk9lC0eB50LxSRmbmbynZmCCiwFwjzmQa6D2gjkcxMPd/NAhMiBA982UFTwAALA1QIRMA8op0TEXSDymXwuuCAawWDLgiCiJCOQewnngReY9gXZGi3brkcgy6QE9cblTaaFNGg9RMeCwY5kmCBEdI9SfeTrmqpWA44zLIalByhMkyqV3ezNETSJKjAJnXEAx0IzvGw5oBjUGzgnSNIg2NENOJgRgz6qR+RIBVN7mwc4rLR0DSGBuxdS0wPkqHhqsTT3BHFbsiYJNBE0yxzEWpMAs0tk1nkwvdBcLHeg/iEckeFHBVI4Kd67L0W7dcibc6OJukAzTO2ag6Fdyzmywkfiiwk0IPlfzB7WMupARsr8UTqAvzErM7T1ycNRxD2KCmwxKZVKD2FcmCdrprxzWNLwc5+h3UjdOC/hvKGSToLoUcAhxwNx219KhRBgugfpDbeCYBPoLKgpDF+DNNMcwW7prIbUn9zQZBFYgXsmp2GJPygLB8u4OSPjeV8pgcKtofSPhHDVOkfF2Xot261+bdQOPlCA/wGCOAGHk9YQuMkCCzRyRgFTqAqqcsrAaOZh7Qt4M6sSin4Lfg8/CAIjkHBuCoOa4JiWCxkCno6oJbNwNx219KhRPFmD2AifAMQmIBggojhiZ702B2XwTVSLVhuomGHYVgnROuO/BCXTNcwGzpkbv0wHm7K0W7dbgmcOr87/4G0/jgBzxUHAkYhoFg+wMTjkM1BAmPVz9LDCckSEQxvtyjbMB1iBoigwCeE5X6YbXQmY4bPB1jzQIAD4nzBEAEFwcb+47K+lQqA6DgaHA9U5k5piEKAwB1pzd+G3bD8kz3dBK4rmfwevAisiFirkNgQF2EEUGXk3ZWi3brCBCkEadD8mG3FJAmmh02S9pvO5LpQGIGAAErHuRwNLwUb0JGyLYS4IUPAsmmjCPuFgzmhr8KKFyEu+VJx43f0kQiAhMOU17EFODkODeY3ocqAvpUNhHAJgLCnujmiUSlSKkiIFmUN4HlXIYAIhd6zKh2c0MiIS+5wsHIh01a8yPG/ARALyoNBiMA+IXgvQchgFFW7VnVlQIAEkqYaj2QhAAAMALsvRbt1hRGIBqYKAACw4T5p0g6gsha4qEAMi+kVGwNQSZ3IY+EIOOWPcgIhGFuG2OzSxHQJwHmX8FU1ic7WreXuzNDdhsDBPzAMT1GqEIBGAT2jvaJRuLuABYA2NQnADGppn4pzz4SioBgADi+HQoYhQOBfXgtXaaPtPOcdn1MysMhQfME3EQMEcHxsAQDlAg4ov5xiNGvYgo7I08sxkmSB+rr6Jjijg83QJydAQJ+Q0fClN3Hh1IoSldalAzSExBDSooNYBgB3tg3GkCALBEwLl9wURALKDXA7IIHRmd0JcZkCCPqoomFPbuvDqXQC8EPs6qDuFgP6nLqsayjiVSa3u2t26xj/2n8XAZUYI8QIBEFv2AiZ9MgD1VKXyLbyDXXYMfyYIc0+RwG6mswM5PO5Ethno1XdunM5qlb1npFVnuMbG+L/jDr2RghgCaEEguDEGovTqFBcIkypdLHunNiY+AspNuc9lOJzhMfMAGwipzJJn5lWB7T1HG7GgYkUPpqipIFix6o90ZJGJgvdZAUOUv2RsPT6DHZCsG/RMzsg1QYBgLo2+FgB9jIp4Lku2Ybos6swI19idMAJyOjojmFuFBLCKg5pjsh+HYJgL8vRbtlhM4PY3MnTsvj5NRUAOfMSoXmK7oE5A4/sCAAEA12fBH5ZuyFywSJY5kOZ0Q9hgACQUFhIAJMk5+gSg6Jltb9PZ04nD/ABgBgBGaJjE/IgnRzcIhwxUQKOYrs9nCl6LdusGN9iuOxcEg1GC7mFSbnEFfxfRF+FkAYoagj764lAEgL5IAcovNAJNSg3QWqMIACeW5wBNTpA4AkNBaygc4zMA82PUcZzMTwoA/bIS4GYtjZMg7nBBIBJER/wDBl6Ldus1xfHn/AA1GU0tRwTFglCPkPNk+AIJlnQEaliqCgGAtc7ZhRmiI9YKyKehEkyYaockAbKS+csBTnEoiMJicNKCwFMSY0D6KdaAYbpSACZJZF2BUB7pIMw6oQvo+l4xCoQX5HVDJ7kRxezTATKVGedukhzDMwCOGNn+V6R+VsTMhMBzzW/Bl6LdusOGDnYl+OBlbBcpvzWRanDkhMPYCAQgARJKhikMOB5ayRmjOQ5Nspo8PgifDlEsHMlGO/fPNffh1EpL9ErDMn8uFNSKBoWNpIAkwCCgFAyGlU8FUKA5SvdwHPBQQ8IB3KWw8BgEyWQRwgFeb4CzHOb3iAQxEESDo872CdtU5j2L8rRbt1gJqRc1PVB8i3DJYOUQ1d7hRHCA0OcnZobY34R8loy+de10kZCNgeLMB25g8nnZTIhdkEEJX3UQDTpaSya+xBijy2sAcgARJOCMQ4PLny4RjRygXDN4s9QCIaN44L5vvfJkZK0W7daIrQMotiQk4jkZZTqnztzAgBMTnJbdZeUysNfCE0BLOS7o6AVn97YQKIh8kxp/UfpGJEkki5JmbpgXhDxUIf4VhIBE7RFPF6RJh7jE2PmItDQfqCCF8bkViYonLnzB7TNO5sB3T3SPEBrW086Yc7XTxAxOCBnBiqDBgRQYG4S0XZouh/UgIaNbHEGFyxDzY5gNAHKwnaO5BncdDI8zplb3SHTAdqJXpei3brgRgEZqYLUF41kUGTdEpEPlXbXLmbsmlBQ5f1FPYHLR8uyxJxMycbwqQLesgJBshveUVBmi7xQcgNBYBRzsQzYYBBDiwwyi5KJG887h+fpTIZoGKBTFqbGtLMRGhTzDmx8MiiQIlNnJQOQmUxZFuwwtax2J8yE5Oa0BqU1A6FpSESYIdBbQ7dmyuGOGIB5FCGEiHu9tbt1zE6jEoAZEG0gJkBboAooz/ADeCfXrR7okQAa+tOg0ncTRnNjXPAiR+1qDNC6iMCAC78mZDNRUwz/17XOR1OJTAQw4rHEyHUbhLAlDxmH6lcA642/VJiYcBoLwHCAAxKOs4oC/ZSrTEstGWgZUKdiwuREMlnV2rsvRbt1wTTLpyMUkciNCUMDr1/ToxmSdS6ynDAgJKYAcnkghiJm5AeWkkAwYSRC0wEyoFluTL926shQVQqGGwTYQ4pwcCHY3BGJEG44RgHKayxAxOQY6rTDSh0khCXAMivmUuy9Fu3XZ+H8SR4x8Fh0eyqnKDmZOlBYUYPIanAIxcHQKAWzLCJMAAnUh2WSbCFuNmhPHm4GTiHQpDqA4LYwDQMaXBgHKku5pX96igCESSVwyK+ZS7L0W7ddEmCYg4hRWHFVVw3GnE4NTJGgejD7Q2ECQGCDRRyRgEaUiRB2eSiSQhIckck1e4QD+l9bFscc4SZ+oRCBcA3BvbfI0uBMZw8hGtp4kRojTybHlW05/GP3K4yDHDIPu35lEJC0yK+ZS7L0W7deBbRogFUmhEfaM75IE0eH2WqggPpf6lCYQkBgESwcyRjUD1CnDEXEIeVwAkAEkyAxTh0nGD9KVBMIBv8DdBujUuEbFOCRBQn0p5hJBuTqIUEn0eSId1QsIdMGYnZ7KS8sCxRDAMwXe4CYQVwtixFIwHlcMivmUuy9Fu3cCPu3EkNKh2RoI5gax7AaQudlMmsf0jmLeV5PpHgxP6hsIgLMjBCsChHdT8OW3NVAACFxlZg5BA3iJn4opcEyg/whIwI4r6RdRrEw4VWc6gUPdmwZIzG3LJ/XuBwi+M0xALUkPKInLgPdNANK4ZFfMpdl6Ldu4Dib5ESOOgo4A7GIXlu0Cwe/LVAiA00OpTkKy+gsxYm7aDC6ZjbHVQTpR8dDAAAYMAghBAQDf4xrrRhhyIYkAwOOYOPAHKmpmKqctT8sPipOVREEgEMSERkbz5ZsB50QCIkFecrTIr5lLsrRbt3BLkMo5O8qhORJRqt0RsXch6qanqgohnZMAkuipmiE9kfakOcVLgstDCb/zZdPBED/FqiRgRjC2TjYdEyynVAjwIpmcg4ljdHABznqtBU3I/73rVd4c2miLH9JZTqhJMRoDrmZw9plNnn29AitygROLRjLCZSgUSwLXThVtC4snDKOoZQqWJsAgaIYwTFgB/qAQDqF/Hra8HBADADqouPpQlgDQcSGJd9pfmHismJqYmJllv/ViDPiNLSeBAEOA/4cqnlAWWd1rP61XzOKlK3//aAAwDAQACAAMAAAAQ8888888888888888888888888888888888+3TH88888yuf40fX8888888MA884UMw088wAsU888IR8889d4oNNcfTH8888I8c8McQc88s0gU8ssw88d0+8//AOB/PPPCH9ffPONPPPPPFPPPOBAPPPPHPPKXPvBbzCf+9FT3V+tPLFPPPOKEABDHPFPPPPJPPGcPBX//AP8A/wD/APpko8HvzzDzzyjhzzzzzyTzzzwDzznj5n7rHP73GM76TyZTywzjyDRBTTTBSjTjzCzzy3z5/wDhZpo7+f8A+KOCEvPDPHHPPHIJHPPPLNHPPPKfflfzvXfP/wDog56lJzzzx0zzzz3fHzzzjfXzzzyUz5f/AP8A/wD/ACm7Nd8jOQ888e/Ch3f/AL5LV/8A/wDP888o0+oJb9MOWmd/6B/g8888SU8f/l4738QGb/8A9vPDcPvICB7nPP8A/wBne4cU88888o//AHPDPPKzDb/1PPNXPPHF/wD/AP8A/pbXO0FPPPPPPKf/AN3zPW9+uQ/9TzzkX7zyZfzzSO174pDzzzzzzzxP++1+8D+/f/8AU889E+888K7ts10DAo888888888t8z/3H9333pzY88ry88888MIMEiw88888888888888c8888c88888GB788888888888888888888888888888888888++A+8//8QAIhEBAAICAQQDAQEAAAAAAAAAAQAREDEhIEFRsTBAcVCR/9oACAEDAQE/EP4aTQi5xEL7dQEX2yRAPeDf2nO+0Nl0IIjN8RHcAlGKgNtRonP2fbNn5nsfnPtwFaIfSvzEdEL2All19j2zd+ZWi8EVtTyqaCkXh9c3OCNRe22OYyLP2Htm78xbjfwIU2w/TijRFVtlBbL36/tm78wcJrHnQMqVNAZrKQzn/KB0anZIqtst5nYIeb+v7ZsxvgicxTYgGhANIkj4xTi/c1jB+ue2bMb4FNS3mW9AXwTvMM1FVtljc7U7dHCC4ZBUQRLM3Lh0XL6vbN2D36gXUV3ACdgwFvE4MOkJiEe1S4t9Axl9A10e2bvzAcMLwfmHnAEsh8Yp3gF1AEuQ230k0Z38wuAvCoGElSonS9s3fnQvzPxF9ot6EgBL+CBfBKDrfguXLi4M+2bvzNCoiPPSF8E8sUhcKeX4zCy48YDBMGfbNnQEJgNh54fDFXcC9Srl+JMDLwRMDLi4M+2bOmhlBENEYosH2h5wAfGkTxkLgRImKuJUphkTwX8bQQiH3L+IQHSqKOVn/8QAJxEBAAIBAwMEAgMBAAAAAAAAAQARMRAhQSBxsTBAUWGRoVCBwfH/2gAIAQIBAT8Q/gmfgCgneA07dTc6ohcrgcMz8bQq3cRoe6Ba5jCdOgq3dgC12mwC5yNRyHQUxFG6O17nwzH3hjRTczaWuOsEVrjpDcxdvEsWiZpt7jxTH3IY0tVHbKZcO6gmZbzPviUR2hVbYu9xGo4JbGHuPDMcJvHoArROWGdsaaE4UlMZM+38Mx9yGI9TEzVu28wqtTfEVxoOAxnwwCBRKXLP86F9r26/WYO8MQVbR7iUeID4gnYJhY5l+IbR0EzcQ/MANiPxmIKa9t4Zh7wxFejZEufQgGBADGoC1ol/linH5gECghVss3Fx2noDbNyBvWpXTUqV0+GY+8MS3qIi1U2HfKl+odPwwK0CfnQjBwdOfTBcCAHQnOh0J0eGYu8MShIHmDlh44SGBag292O7qF0dROx/6Jksspfn0lnFL0NtFrQMXQdFwb0dfDMfeGNKi3S//EPnA8qzeSDbbUq4rf6giABaMnWPQrRUDpeGYoaLW6tAC1ogG2+Xw3h/y6fXfQHpDQ0WtA30vDMfeGNbUYh/ylzLx8SK3zDKXDaKgtwvxvSHRLlabcw0S5UCul4Zh7wx0IrJm04Xm+WP9wBVgTOwZsI/b9QZeihFvQdLqDL6D/SC6oejfu7sxU5oLDY/hGJt0wrYYaf/xAArEAEAAQMDAwQDAAMBAQEAAAABEQAhMUFRYXGBkRAgobEwwfDR4fFAYFD/2gAIAQEAAT8Q/wDhZhZLRSDasfjNWJ+Ur+ErIm7HxQczXEbf/FAghumn+9HRHaPSWu5G3+1KDZyOjs/kSihLhe7TgO33wB81ED9hfAH7pi28l+q3Yf5vQjrpvkajROo/7GnbbYo8iPDQ1cwEPcp/8GRORAd2rFFUVntT5qf6sE+Q/FWrn4HxKkgEQXN1H2rRmMQ+R9ylAEqsB3qKZcuJ5bDulLtE5HzBQPhgvzVgSGPKGU/FQmd5BHqrO5+B1itpPoLuxUOEcCvMsfiviGB8FVgxxY7sxTcMk4Xz+dBgSR06Jb8BmQzdHqktsInR+FCKA1ml5s7DwFW6xLxUmp3zuX0oDsq3VTu3fYoSsB1ihWBXhKPlMKgII5Ofi9BSmbyXUwnDJWKPZeyfw3qDIJIPOZOST8ohBKGAOWhztQmXiQ3a2sy4pUpYhcIWO3W9Ega1gcOB8UEIjj6FlSIDGo/7UbN1/VPDvRDr3ZyFhwiU8BLhC9ngveQ4M0QKk+BwjqXz6trGVB1DifK7S2qeOaXv2D3w2DFLHLEG44HdKjqEwiOsUPNTRTMQfNUoFp3Hj8KOWFnTtJITizS1t9g/FhwJLyOaDciaFhEyeyTDT4D/ADsZWxWYQAw6JkHN6Ge74q15bnloo33BtzZuoQWNl48VnAuzp8Q+ShIRkPHjd2Zau3jMRCmzWctyE3KEGVmyus+W0yvtOfeTrgfPrEGn2UY94RiapHk25Hy2psVVuoXPPTY4oAAAAiA0449Vshw23qwHVCt0QzfDA8tKp27cOxLd6OKhunmVFBC/2BQAsAcFRQkdATQf8/bU5RpAw1GCPSiIKQISNVbrz+NyQCq2gpt0U7Matp4Mgl2rZ5joGo2CcoDF21K3yE6dnrbcFYybAXYt6qSAhCR60HccwBH+glzQMllEpbpuujgdyFLsw2ZpkXRlLjouvpLzFWwCZ1aynTKVr9NUtANAEAWC3UULkU26Lk7WSbulAqGDekC3sx8SIH6xxIpq5AgI0TR1u4kuPpkC5ZYcnJosIuPo086MAJV6BWZsZcMLG/HBgWLy0B4gaUdL4cAy6C6CpETwljiBx7CWtCAbI2oABSn6beSM3YMkalgvzYDCPcmRpXiFYgyxtkkMlmse+GtfxN6Me4CylFzsfTg12UwTJn8rfFowFoC3qF75ALG42E6sHe1ENeEQcWT4nDWHnwC7H4sT4ZgwGq/7bC1LUy4mJszfhDLtapKQM8/72P7t+FYp7cLahjKeFGKR4YFhZdgCriDtQGMgqGxNjgNOsr7kW0UJExJhN/QwApCADKtHBDfIsJDSQ9wbQQZEPIOUbDblOz3mJNMNnlaDJ/hSjeU2LKCHiBjRYp7EISl59VIU8Dr6FyEharrxaZih/wDkiUcvUxyNR02T8u6t1brd94sjFFIutyErtrZgAYrWbmoyibKVu2iSlZ+jJ8/gh/E3ox7X3ymPM+b0F8QAAY/tXX1hAhJJdjlxgtOQQMghVAd0/Bp+O7ROXOyDbdwU4ggRV5kN1gl14ACmJ+douQ9Gb6LGY/AZR4tAStTQiZk6J7E71OlaCzLfIR05fiROSyhBZnb5Uapw9Il6AL2oghR6CD6/AwgCjy3l2kUhwARsmpxHyqY8p2CV8FOjgqtx8ABUQJxGD/hZ/CG8tALJYOAPQSnew4IG0Xz/AAI/ib0Y9mTfM/e6rh3dqswGCXXfLu3mczf1EJDmJk0aS02JeGCGo78quqt38SglYOath9pZTlMuDuldg1x2DQ4Pu/olbAAZ5g6oQ80RcI9436s670qOVJBAkzCWO7OlT9u6LLK/zqI6+5KZjG4P4VQIJbBjVsfKFH+hvkCXuy/iQaxLlY+6GwIGdGDHZ95eQZOfLW7vIb4pREAgSEYFlCDEE036MRov9gqd1+df0KlIMlBbI7M1AWXZAgPH4QAWqXkMdIfNIbPUAeJ7jr70a1/E3ox6w8Dz2n+NAWn6tr1H4NAwFi3og5vVq8nmfPTXet9N8gJsGMRsQUI4T0PW3q/wMcOq1GHLAGTl2jkmr+RibgNWjNuKAEAAaRiu9bE8ks8jmCZXYlq0leQaar/iLVCTWDOkDVW1By0FkHDwHzK0vAZGSrBNixGy7EHtQAsAegr+qkFs90f8n4VnMMgALiGyUqAZB0kwJw050xPz/iKVbQF3n9LJ1mfuGm+bx+4j5p9LfbxlPwUCyZayu6HxSWfhH08bd2rlS5qu12fmhjGJP1dbtSWTbC6GPkpYBhBJfll3tTk34JVLS72Vqpp0A/r8RIZE8D9tRfP0EkfL74a1/E3owejYpJ8SZiz81jp7YSA3m4N96PAVkH3QDpQoAefyKPihY7f9b+1JjmaJZtVwf29stTUTouvgoEgTF7yP6oYR4VHpNjtHseBaOeoOBxO0u8StuyY101fjQgprcGYAXVo3NqWCmyW6YNDlfQU1aBLAuzyY3G1LBs0ezXc7gAqAk26UB+lLnDJuP4gJCIuScg0tL5zhKINhu3ZI80TmV+EQtxejHJWy32mpu0RA+WNub1dx1yLOwFNNlH3osvmg0DJ+uL9KtnuI+oPZqHN0gUFJs50P0L+IZGA5vJfxQXFueCUvH4EP6m9GD0QbvjU/UJ7KAALjVm/7dZ/8CBLEY/udIqaeZU8HPzPFmhkzBYA/yuXVmmHKMANVaZKvK2ScXwXV0C+tRp/OJDdcBL26VqpIspdeVvQ+wHZgsZYbugqG+UBsiWfY6CXtHd5ihBEC0wkiOzM2ohRWJScKjmSefxASAESIm0I+B3qXMzmVw6XTtPWjGSZsvMoqxPYi0dj8KFFCDMSfgKkbKMQ2L35kxvSgTgMQSD2CdvwmvSAOLInQu9IjJAxbHdYX292Cta/ub0Y9DcK3srHgf+BM2TC52OpwTzFLpkQT+I6svTFFa/2y6cBlWIL1l8Bt3pvPCQ5fRAVABZpNGMJdr32sLsQb1c6zjK4ANVYA5oDggRtEA7gAc5pku4jKm7e4OpQyeyUGRCw4450NpVIEdqCHGaCo8nahTGkDI/hCkF3O5idgD2pvOHa6GNiSR2hodq5smLO4DwT8aLU5GF5B0ijQjio0DHYI/IEN+r8EgOOAYDlbBu1Z3RMbMDsAB2mmYOONhE+s9BPdjata/ib0YpyQBV2KwfF4lZ8Py3hh1T4ppR8xWdwbuxHJUFNvIi7M91OKCTtjANj0HumwInhWjyug0sDquE6Mu11lekB6QtupTOx2r7ttH0MzoTLDbxh1XY9JBCBssEszwA71N7DkTohccdF4TUXrSEsoEO46ohG4l96tyEIn8mw56MGpsXDuJZ90bhmYKJJ4RE0bN/UguIQJmBAGwAbAHRqM0l9mN4tLCN0QeKHKIbC0weYcJj3LEQUCyq2CpF/aEsI5EpQV4cGAyWlAiDJhLiJkTkKsDJDYsuu0OzDpV7GQGPwE82ZvRZ7ebC/h0dPc5ExQJqrgqcEAkQOg3Og3dAsET14y8EcSdqC+oCADAGNvfDWv4m9GKVuB4pfLV2ECxwFC1K61AvZ5qximImJnUnJzhKEwr1KkcQ96epSeQ6sUiBPa40CbCAeWCl9niI8j9VEO9SjpKVOkUuGvZBvcaiMV0qw+pRmPYu9ihWFZxHUt2y8mK1RVUiypcrlebrr6ysbNt9j+BnMCAaRcAKNwuauuVsgg7ulAGgYpSIKxYNX+t1qBYkh1+obdqGziPaKVXX1DbtLtpkhqcGAbY9t6WGpU66W4NzKtfch5rZFTfFp5akSmw/oSkKpsxo4IpYZfKz8KDCSRcQ2/3gO1InIMyhu6cihzSNo/iEBkrsu+CCWiwlQJA5E2qZEBDu4Z4M7ExaqhAwmZGLF1JPNS4zaKTkrI5WT0Kg5tKlwkahh90n3UfViGXwM0Q8HIHqH0pYSoXJBhkyTeWYcBVi/tmE3/AOCN3QS/AGu7pyrldX1x60igDWcA3w4YyYQZgv8A2NJL3qIzQOA45Y1ldcvP9Mc6NvmYrkgC/wB0nHdT4maEuJkA8h9KTMyJJRqmZtZXwFCmYYEZDhwJh0F6A3fLd+dct+xAR7sXqfzN6MU2p/EV8ewsLRPeCoGXgEsRU9cNz9lLzI4D9VcjyFXnpv8AjoCBeP6VAeh6f98coLdyU/WJFhuh/DamjVPellHwexRkO+C6Jss00LuggINAapymqctQkGpW+47DK/tK31D0fogCMRY9IgVEhZh+YT0VJcAVOAKM8IA5Lj0uNGPbaPGe3Z1qTzuUfVITq8IpF4eIrzddr1KWvb9gU5F//wCxppRZhifk+FWDwzpbDc8A0YWrwym6XXKvtlbTBVt7AvJHJrDJb+EcPVT1wiBnspuvj0pmEnSV+1Gd1goDfU7JoeCuBZOaxxZuNRaTGDsBY9qw6BwXaccAlKh2WGCdST07KTwJcGO6QndKuOXmkINLBMeIL/FAQAktjmF8C0UiA3lwljg/wqHJRRdgPwwa/kb0YoGnmdn9mqdi62PHrf1UC6RSZ1ACfEzU1oKNHwHzQaZxJ+IPlrXSBJupl3WoEQJYACfZ0qfWsin/ADaFxq2rDYAXV1Vbq5lvS2q3Yt7D9uCjTBoXVJsF++elYABLripD1kmU/RA6zTxxpzNl3YKakoEPYIU7f+NIlaCRo4uGFX9VGjHQfp+IEAR0aV5WV+q+IY+n44b1rX8zcoxSOkBPsRAIMiQo+Z5zRAAbC/bWjD+CSrEUzJ+N+ikyFp9QqSL1u/lpBRLsF+vvYIAZlirNmKf2nHlxlMwowAaAYpZl8zgGwauDwJN5H+gpzlb7B6QDgN63xy0sb+hSjQGy4OiHY0JaZPo/htMLwQ8E0XBTEpHlIodvyuCdT/8AEh/U3oxTmDI91/8ACBbdaAOuIfLoOKKlFWw3Go8r7R6JwJKAjuf7HTcsmCkQaWMG2975fRSYu7XV4CV4vTA3zct/BsAUS4VmuVr0CV6c1Lfcg3U2l3Zv1qzmf7A/X4K5qyI6/ACvTmsUvksNh9Ebsstfuk4Nes7ShiDXWov08J32faEXpGAcrSoIYVw/jenIAxK/E0zWh6qTgAav2AU4QZrngk81iJ4bdz3LgXJx5akwmxAH8c0hNHPxctTrH+GKCbaf1mi0ctEPCNA3K03TiEvT8cNa/ib0YpwAoOl+lbRh/NhCE+LeDBzYNWlH8hN6HbRa7nSkYtJAvu7vLeixpIABu0SHj4RaF4OaVoaYF1XM/RYix6qBYAC9KNMhT3Xc01NiDeiZQBKtI5uRMIfaLOwUgQsbsB8QVYUw37T+CRKz9BJF8H2LesutgIDuvmj0ckAVWwU8srgtwM+bHWo25c8AMDxNcHtnreV26jB1mpdWLE2wc/J0tQzfT0JGahIS8ZF+tavEUDAG6vgBjembA57Ok4+D3IAOxJmh3OCMWw/QxxpS9Y1zPOfYd4/DjWv4m9GKHGeiAiiEgxd7j4n8YIgBdVxQKWtzh5xPaWkScOMeqv4B5rfs5A8lyvL6XssTCU3TA5YoK08olX15duOGtbBj2AguQZmXi+U2GauNMlzcNfoO5QAABiOhSkmn2qQ73+KiNtPwTyVRebL6Sp3PUAqgBLUpbhkIgB5gTszWGgnKpQAyq4peAX1I11cTXLoGwGCPwIJDCRczP+qdeqeut7bd229I1jdXTQ6JJ3pTlK8jZRp1kxv+FZkMNOORwmEtRPwuqQydNR1E/Dj+JvRj0OtJNigMFsDzLSYDWR4+YoXCzsKA4Hkaml3TzSGS6oVDh2lKvSo2FdQHmAHelkx0ah3fsoECVxk7yfisLFE8OB2CgAAAPRJChPhwXjlgoAeyghuuOyXkpMnKdUdVbrzd9rdwy0ckviXTGcBTiDALAVOpqlHKxeGX/ZS7R5xPogAMBYt6SfaY7/SS1GbbVh72RcJkDQxXuD4Ythyw9c0aLVpczrSIT15BhbkOkAJrQQegoJBagJnuRLxG/tRBZxC69Au1KL2v8VTYCyb4G549hCU6BPCMjO+GoPgU5hhA6MSOz6W6jYcBH6ocvoBu9pniL0aMtFx9gfipyFEwx4nNDpMsoHpgvf2hVHCtolfXJ3NvwQ1r+JvRj0a4kkJp9WeX+qWlL0/1Scz9FXDuaAsVt/hoWOKD6eyKP6A/NCu/gj6/qGnQXwrByvpSLpV5RKt1yvN33QVHFZU5tXdMdagKECAKFpZBlGA1W1KSuDlLt8UsSvEBSZABN1j6l6UY4hnYtPfPWocPxvojIodgS0zisv04AgOCPYhWIxTBxJaXg5sUCsIUFdVLvoiiuB/cA8lDHjl0p29dRi/XICgASq4pRNoY1B/gsc0ScBMRh8P259YDG6umAnZJXWnJVJIUhg8u4QTvVm4xBSjePUJ/wME5GjPR+w2HYtsDAWT2LSXk4Qf0lXBzB4fbj9T+JvRj0aMMJAopiYdKLkjhmpqaLkjloHH7b7aWIbJXiVFgriUveNR3lZjsP3UoF9JZ1T3CU8VnJmeW/vdZSIntUrHskWA/jkmN6Dx4mAaBQ9R7SpwGq0KjZcRIDldFxdMY6+ij7ybqjwGB3moLpUH5Uut1bE/A+y0ixLBr/uo/mMtw+MdD2GWTXDoORh7U+RvMo3wneXn3MCNKkBUX7m/iVJpy/wC+Ff8AUf5r/r/80co9GAN0vUKvHqRbCqnLK+8fdDf0/ib0YPWK3FITuHOmzFOwEmgjxh0jegRD6HHzSmX63/mp/O2Xmrsk+8FAAAfEfil64Ql0BdaAl+XTYY2Xg1miIQBAFIMC1w7Bav1lgo6o9kyTzrGBbcc+mcsvCQs9H22pisBN5DXrdXmiAoQflUDqXb2cR0unUS/z+JCIAXWpA9oVwzi4XR1puhlcHOxsKAAAHSPwfAr+rs98Na/ib0YPVpbexDUSz5Nm+rH5cPDWZ+z6STlKkXBAJ3j6B3n0mFPJF5YcXyOg0piyMnaIPLOd/UEBUAEqugaukUoAxrGYmC6m+i1DyXqMdPytMOZDoj9h7EmEkcyH9UjUpO4kn3+GZ9A6hDqbOU2g1ZDQD+09UIgBqpYogciETyENfxv6oUWwSAaqkebVm459fgV/V2e+E1/E3ox7GBAPkTIlETXCksmTbZ7Oi/igNNht8K+XhogqvBK5174NyiWGA4AaAUmRQgG6tooMy83J3P8ABw5qe/xGpJXXnPqoErY7/wDWacuIx4Oro00OcRgpUQcUEH5s4a/iMlEIWSf9ewoMSpb7Zz9I59g4Vwb9lfRu9GhXgRekHI+ZKnWSJQX6DpPb1kNk7gGDtA9iLLuRk2QxLMt7gRqQFsen9nfXxPX4Ff1dn4If1N6Me1OwiIOyU81MpPAde6QzvQyCIiWhmTfk90QoBYL5duvFS12LKBuTd2HqVqQdIL0PkY4odEwGDgLUCIA1aXMK2XePsS1LEEE7HUk5VdT2MhYBKrpq1CNPhK/TywYzerqV4y1HCNqIf+BkdC5ibccjJG0ewgWnADUTX/lKnJBKJykJ5E6UmaG4p+GKVICCFegt3lY4pW8iq6AzpGAsEW9AhJrJpc2d+dKdjuDGHk+XUqYRlhIYdYSzcYphjAPZEfHsiiDjdJhjZIZ9XSPw2xbtzE7HX2fAr+rs/BD+JvRj2xNSMmf74qZjFC4Zu+LJ2rWWSzqaJySPptOw2boJpcZroPj/AApoUDLl8JfpXWx4+bido9MUIjDu0OFYT5OToM0wi+/+93ScFAAABABEHshyg5JxTq8EtR4bc0LxscZdWoyQg4qDYMUIFv8AwzkZhIwhcyLPnStcrHWaO5qaRfH4iUZbCxNzzAasFG/FFoCClbMrVl17xB7Dz1EhcswjYcMmtc+ep4IfVGXJDfCOTCHRKAQAL4Iv/nn2fAr+rs/BD+pvRj3N6Mb0Tl5ps65B80QrcZd0bHiKjG0TPj0Vwy6EvDeiF8tc/B+6IUDaDB1Yl2a2tFDfA7A9ihdiOagwxnA8uH20VYHMoOFyPA0J8kAAHTaoS21EIKP/AMYOdSFY0DU5LnxV84xcD2Q50ww2/Axdr3QTqaHy4JxTBsoELMAaDQ759ImQQLA0S3mBOTaaaFSFIaGjNo9yTArpgm62BecR1okLzM7rd/X4Ff1dn4Mf3N6MHvKIVMWKkNuFPqkc2RP8aY8U6NbV+twvepMBOVqVAx1fVE8EvWU8eWCKWIR2z4M04JG6/uiQjFnkebHilgBAsEWDpRET8KwIeKEaUAY/8rRonIh3HI8lLWbMsx0N/IvNBD8hHalMdiihJqLDzX/PUwEk6Fl0ipWjwd8TG1avYrK6vGmCeSiGTkN13XK8t/YskmQBcbHA+dkpRC0mu6qx7J1pKRTIjOzX/PUVYMLa9CgIu1BbODc8HSlwIiB2j6C3XNI6SeiNkduSv+vr/r6Sgx76KhgsICyb+0jWBH36wRr8DNGPwxOaFMFFKx4qUsUibPFDLB8Vko4niitJ8USJFaAo4WPFAaFCf+qNA7SFKosn8aUL4CPr8MGLsJqWTyP9FQhe0H5BNZmLeXqyjy7o/vP5GkNLaU7VcFcFGxQDagmlQH/6elGdEdHh1rin4q26OVjtvUKjzf8Aw4UgYaCxWoA+C9ABi6P8V/xn+KcFehOgAAAaR6//2Q==;rounded=0;shadow=0;glass=0;sketch=0;strokeColor=#FF8000;strokeWidth=2;fillColor=none;fontSize=16;fontColor=#4277BB;" parent="SS1UO9asb9NOfLbzNGHr-1" vertex="1">
          <mxGeometry x="790" y="48.72" width="243.59" height="104.28" as="geometry" />
        </mxCell>
        <mxCell id="Q92iPGlsA-gXPBGff51a-6" value="" style="shape=image;html=1;verticalAlign=top;verticalLabelPosition=bottom;labelBackgroundColor=#ffffff;imageAspect=0;aspect=fixed;image=https://cdn3.iconfinder.com/data/icons/user-avatars-1/512/users-9-2-128.png;rounded=0;shadow=0;glass=0;sketch=0;strokeColor=#FF8000;strokeWidth=2;fillColor=none;fontSize=16;fontColor=#4277BB;" parent="SS1UO9asb9NOfLbzNGHr-1" vertex="1">
          <mxGeometry x="667" y="25" width="128" height="128" as="geometry" />
        </mxCell>
        <mxCell id="ujxpVkBqCpxsbF_aywxT-154" value="&lt;div style=&quot;font-size: 14px&quot;&gt;&lt;font color=&quot;#4277bb&quot;&gt;geoSearch&lt;/font&gt;&lt;/div&gt;" style="outlineConnect=0;dashed=0;verticalLabelPosition=bottom;verticalAlign=top;align=center;html=1;shape=mxgraph.aws3.lambda_function;gradientColor=none;fillColor=#00b09e;spacingTop=0;" vertex="1" parent="SS1UO9asb9NOfLbzNGHr-1">
          <mxGeometry x="708.49" y="346.53999999999996" width="31.25" height="30.5" as="geometry" />
        </mxCell>
        <mxCell id="ujxpVkBqCpxsbF_aywxT-158" value="Search" style="text;html=1;strokeColor=none;fillColor=none;align=center;verticalAlign=middle;whiteSpace=wrap;rounded=0;labelBackgroundColor=#FFFFFF;fontColor=#4277BB;fontSize=14;" vertex="1" parent="SS1UO9asb9NOfLbzNGHr-1">
          <mxGeometry x="670" y="322.5" width="72.37" height="20" as="geometry" />
        </mxCell>
        <mxCell id="ujxpVkBqCpxsbF_aywxT-193" style="edgeStyle=orthogonalEdgeStyle;rounded=0;orthogonalLoop=1;jettySize=auto;html=1;exitX=0.5;exitY=1;exitDx=0;exitDy=0;exitPerimeter=0;fontSize=14;fontColor=#4277BB;startArrow=block;" edge="1" parent="SS1UO9asb9NOfLbzNGHr-1">
          <mxGeometry relative="1" as="geometry">
            <mxPoint x="84" y="254.75" as="sourcePoint" />
            <mxPoint x="84" y="319.01" as="targetPoint" />
          </mxGeometry>
        </mxCell>
        <mxCell id="ujxpVkBqCpxsbF_aywxT-199" value="" style="rounded=0;whiteSpace=wrap;html=1;labelBackgroundColor=#FFFFFF;strokeWidth=2;fillColor=none;fontSize=14;fontColor=#4277BB;strokeColor=#4277bb;dashed=1;" vertex="1" parent="SS1UO9asb9NOfLbzNGHr-1">
          <mxGeometry x="1075" y="275" width="35" height="455" as="geometry" />
        </mxCell>
        <mxCell id="ujxpVkBqCpxsbF_aywxT-200" value="Availability Zone B" style="text;html=1;strokeColor=none;fillColor=none;align=center;verticalAlign=middle;whiteSpace=wrap;rounded=0;labelBackgroundColor=#FFFFFF;fontColor=#4277BB;fontSize=16;horizontal=0;" vertex="1" parent="SS1UO9asb9NOfLbzNGHr-1">
          <mxGeometry x="1055" y="270" width="34" height="183.65" as="geometry" />
        </mxCell>
        <mxCell id="OOXTCw9Cf8n52GF-0wZX-95" value="ProvTerr Open Data" parent="SS1UO9asb9NOfLbzNGHr-0" visible="0" />
        <UserObject label="&lt;div align=&quot;left&quot;&gt;Provincial and Territorial metadata were obtained from a number of cataloguing technologies. Additional details: &lt;a href=&quot;https://federal-geospatial-platform.github.io/fgp-metadata-proxy/PT%20Catalogues-Portals&quot;&gt;https://federal-geospatial-platform.github.io/fgp-metadata-proxy/PT%20Catalogues-Portals&lt;/a&gt;&lt;/div&gt;" link="https://federal-geospatial-platform.github.io/fgp-metadata-proxy/PT%20Catalogues-Portals" id="OOXTCw9Cf8n52GF-0wZX-96">
          <mxCell style="text;html=1;strokeColor=none;fillColor=none;align=left;verticalAlign=middle;whiteSpace=wrap;rounded=0;dashed=1;labelBackgroundColor=#ffffff;fontSize=15;fontColor=#4277BB;" parent="OOXTCw9Cf8n52GF-0wZX-95" vertex="1">
            <mxGeometry x="299" y="217" width="517" height="72" as="geometry" />
          </mxCell>
        </UserObject>
        <mxCell id="OOXTCw9Cf8n52GF-0wZX-97" value="Data Transformation" parent="SS1UO9asb9NOfLbzNGHr-0" visible="0" />
        <mxCell id="OOXTCw9Cf8n52GF-0wZX-98" value="&lt;div align=&quot;left&quot;&gt;Cloud-based microservices are used to transform provincial and territorial data to ISO:19115 (NAP) geographic metadata of the ISO:19139 XML schema implementation. In Canada, we have Harmonized the NAP to enforce bilingual and adjusted the cardinality of elements. Additional details: &lt;a href=&quot;https://federal-geospatial-platform.github.io/fgp-metadata-proxy/&quot;&gt;https://federal-geospatial-platform.github.io/fgp-metadata-proxy/&lt;/a&gt;&lt;br&gt;&lt;/div&gt;" style="text;html=1;strokeColor=none;fillColor=none;align=center;verticalAlign=middle;whiteSpace=wrap;rounded=0;dashed=1;labelBackgroundColor=#ffffff;fontSize=15;fontColor=#4277BB;" parent="OOXTCw9Cf8n52GF-0wZX-97" vertex="1">
          <mxGeometry x="299" y="215" width="517" height="72" as="geometry" />
        </mxCell>
        <mxCell id="OOXTCw9Cf8n52GF-0wZX-99" value="FGP" parent="SS1UO9asb9NOfLbzNGHr-0" />
        <object label="GoC Partners" id="OOXTCw9Cf8n52GF-0wZX-115">
          <mxCell parent="SS1UO9asb9NOfLbzNGHr-0" visible="0" />
        </object>
        <mxCell id="OOXTCw9Cf8n52GF-0wZX-116" value="&lt;div&gt;The Federal Geospatial Platform has partnered with over 30 Government of Canada departments and agencies that are producers or consumers of geospatial data. Additional details: &lt;a href=&quot;https://geo.ca/partners&quot;&gt;geo.ca/partners&lt;/a&gt;&lt;br&gt;&lt;/div&gt;&lt;div&gt;&lt;br&gt;&lt;/div&gt;" style="text;html=1;strokeColor=none;fillColor=none;align=left;verticalAlign=middle;whiteSpace=wrap;rounded=0;dashed=1;labelBackgroundColor=#ffffff;fontSize=15;fontColor=#4277BB;" parent="OOXTCw9Cf8n52GF-0wZX-115" vertex="1">
          <mxGeometry x="299" y="224" width="517" height="72" as="geometry" />
        </mxCell>
        <mxCell id="OOXTCw9Cf8n52GF-0wZX-101" value="Open Maps" parent="SS1UO9asb9NOfLbzNGHr-0" visible="0" />
        <mxCell id="OOXTCw9Cf8n52GF-0wZX-102" value="Open Maps brings together the Government of Canada’s geospatial data, services, and applications for use by Canadians. FGP metadata are pushed to Open Maps using an open source harvester which converts HNAP XML to a CKAN format. Additional details: &lt;a href=&quot;https://open.canada.ca/en/about-open-maps&quot;&gt;open.canada.ca/en/about-open-maps&lt;/a&gt;" style="text;html=1;strokeColor=none;fillColor=none;align=left;verticalAlign=middle;whiteSpace=wrap;rounded=0;dashed=1;labelBackgroundColor=#ffffff;fontSize=15;fontColor=#4277BB;" parent="OOXTCw9Cf8n52GF-0wZX-101" vertex="1">
          <mxGeometry x="299" y="220" width="517" height="72" as="geometry" />
        </mxCell>
        <object label="OSDP" id="OOXTCw9Cf8n52GF-0wZX-103">
          <mxCell parent="SS1UO9asb9NOfLbzNGHr-0" visible="0" />
        </object>
        <mxCell id="OOXTCw9Cf8n52GF-0wZX-104" value="The Open Science and Data Platform (OSDP) is an online tool that provides &lt;br&gt;Canadians with access to data and scientific publications that can be &lt;br&gt;used to understand the cumulative effects of human activities. Additional information: &lt;a href=&quot;https://osdp-cumulative-effects.canada.ca&quot;&gt;&lt;font style=&quot;font-size: 15px&quot;&gt;osdp-cumulative-effects.canada.ca&lt;/font&gt;&lt;/a&gt; " style="text;html=1;strokeColor=none;fillColor=none;align=center;verticalAlign=middle;whiteSpace=wrap;rounded=0;dashed=1;labelBackgroundColor=#ffffff;fontSize=15;fontColor=#4277BB;" parent="OOXTCw9Cf8n52GF-0wZX-103" vertex="1">
          <mxGeometry x="299" y="220" width="517" height="72" as="geometry" />
        </mxCell>
        <object label="CGP" id="OOXTCw9Cf8n52GF-0wZX-105">
          <mxCell parent="SS1UO9asb9NOfLbzNGHr-0" visible="0" />
        </object>
        <mxCell id="OOXTCw9Cf8n52GF-0wZX-106" value="&lt;div&gt;Geo.ca is dedicated to helping people discover, visualize, and analyze open geospatial data. Geo.ca leverages best practices, open-source technologies and standards to make Government of Canada’s metadata findable, accessible, interoperable and reusable (FAIR). &lt;br&gt;&lt;/div&gt;&lt;div&gt;Additional information: &lt;a href=&quot;https://geo.ca/about-cgp&quot;&gt;geo.ca/about-cgp&lt;/a&gt;&lt;/div&gt;" style="text;html=1;strokeColor=none;fillColor=none;align=left;verticalAlign=middle;whiteSpace=wrap;rounded=0;dashed=1;labelBackgroundColor=#ffffff;fontSize=15;fontColor=#4277BB;" parent="OOXTCw9Cf8n52GF-0wZX-105" vertex="1">
          <mxGeometry x="299" y="220" width="517" height="72" as="geometry" />
        </mxCell>
      </root>
    </mxGraphModel>
  </diagram>
</mxfile>
